<?xml version="1.0" encoding="utf-8" standalone="no"?>
<!DOCTYPE svg PUBLIC "-//W3C//DTD SVG 1.1//EN"
  "http://www.w3.org/Graphics/SVG/1.1/DTD/svg11.dtd">
<svg xmlns:xlink="http://www.w3.org/1999/xlink" width="360pt" height="288pt" viewBox="0 0 360 288" xmlns="http://www.w3.org/2000/svg" version="1.1">
 <metadata>
  <rdf:RDF xmlns:dc="http://purl.org/dc/elements/1.1/" xmlns:cc="http://creativecommons.org/ns#" xmlns:rdf="http://www.w3.org/1999/02/22-rdf-syntax-ns#">
   <cc:Work>
    <dc:type rdf:resource="http://purl.org/dc/dcmitype/StillImage"/>
    <dc:date>2026-07-20T13:05:10.746219</dc:date>
    <dc:format>image/svg+xml</dc:format>
    <dc:creator>
     <cc:Agent>
      <dc:title>Matplotlib v3.11.0, https://matplotlib.org/</dc:title>
     </cc:Agent>
    </dc:creator>
   </cc:Work>
  </rdf:RDF>
 </metadata>
 <defs>
  <style type="text/css">*{stroke-linejoin: round; stroke-linecap: butt}</style>
 </defs>
 <g id="figure_1">
  <g id="patch_1">
   <path d="M 0 288 
L 360 288 
L 360 0 
L 0 0 
z
" style="fill: #f7f7f7"/>
  </g>
  <g id="axes_1">
   <g id="patch_2">
    <path d="M 46.266646 253.99976 
L 356.99976 253.99976 
L 356.99976 26.397896 
L 46.266646 26.397896 
z
" style="fill: #ffffff"/>
   </g>
   <g id="matplotlib.axis_1">
    <g id="xtick_1">
     <g id="line2d_1">
      <path d="M 60.390879 253.99976 
L 60.390879 26.397896 
" clip-path="url(#p14ae0f7545)" style="fill: none; stroke-dasharray: 2.59,1.12; stroke-dashoffset: 0; stroke: #9e9e9e; stroke-opacity: 0.45; stroke-width: 0.7"/>
     </g>
     <g id="line2d_2">
      <defs>
       <path id="m62e5b3c23a" d="M 0 0 
L 0 3.5 
" style="stroke: #000000; stroke-width: 0.8"/>
      </defs>
      <g>
       <use xlink:href="#m62e5b3c23a" x="60.390879" y="253.99976" style="stroke: #000000; stroke-width: 0.8"/>
      </g>
     </g>
     <g id="text_1">
      <!-- 0 -->
      <g transform="translate(57.209629 268.597416) scale(0.1 -0.1)">
       <defs>
        <path id="DejaVuSans-13" d="M 2034 4250 
Q 1547 4250 1301 3770 
Q 1056 3291 1056 2328 
Q 1056 1369 1301 889 
Q 1547 409 2034 409 
Q 2525 409 2770 889 
Q 3016 1369 3016 2328 
Q 3016 3291 2770 3770 
Q 2525 4250 2034 4250 
z
M 2034 4750 
Q 2819 4750 3233 4129 
Q 3647 3509 3647 2328 
Q 3647 1150 3233 529 
Q 2819 -91 2034 -91 
Q 1250 -91 836 529 
Q 422 1150 422 2328 
Q 422 3509 836 4129 
Q 1250 4750 2034 4750 
z
" transform="scale(0.015625)"/>
       </defs>
       <use xlink:href="#DejaVuSans-13"/>
      </g>
     </g>
    </g>
    <g id="xtick_2">
     <g id="line2d_3">
      <path d="M 83.931266 253.99976 
L 83.931266 26.397896 
" clip-path="url(#p14ae0f7545)" style="fill: none; stroke-dasharray: 2.59,1.12; stroke-dashoffset: 0; stroke: #9e9e9e; stroke-opacity: 0.45; stroke-width: 0.7"/>
     </g>
     <g id="line2d_4">
      <g>
       <use xlink:href="#m62e5b3c23a" x="83.931266" y="253.99976" style="stroke: #000000; stroke-width: 0.8"/>
      </g>
     </g>
     <g id="text_2">
      <!-- 1 -->
      <g transform="translate(80.750016 268.597416) scale(0.1 -0.1)">
       <defs>
        <path id="DejaVuSans-14" d="M 794 531 
L 1825 531 
L 1825 4091 
L 703 3866 
L 703 4441 
L 1819 4666 
L 2450 4666 
L 2450 531 
L 3481 531 
L 3481 0 
L 794 0 
L 794 531 
z
" transform="scale(0.015625)"/>
       </defs>
       <use xlink:href="#DejaVuSans-14"/>
      </g>
     </g>
    </g>
    <g id="xtick_3">
     <g id="line2d_5">
      <path d="M 107.471654 253.99976 
L 107.471654 26.397896 
" clip-path="url(#p14ae0f7545)" style="fill: none; stroke-dasharray: 2.59,1.12; stroke-dashoffset: 0; stroke: #9e9e9e; stroke-opacity: 0.45; stroke-width: 0.7"/>
     </g>
     <g id="line2d_6">
      <g>
       <use xlink:href="#m62e5b3c23a" x="107.471654" y="253.99976" style="stroke: #000000; stroke-width: 0.8"/>
      </g>
     </g>
     <g id="text_3">
      <!-- 2 -->
      <g transform="translate(104.290404 268.597416) scale(0.1 -0.1)">
       <defs>
        <path id="DejaVuSans-15" d="M 1228 531 
L 3431 531 
L 3431 0 
L 469 0 
L 469 531 
Q 828 903 1448 1529 
Q 2069 2156 2228 2338 
Q 2531 2678 2651 2914 
Q 2772 3150 2772 3378 
Q 2772 3750 2511 3984 
Q 2250 4219 1831 4219 
Q 1534 4219 1204 4116 
Q 875 4013 500 3803 
L 500 4441 
Q 881 4594 1212 4672 
Q 1544 4750 1819 4750 
Q 2544 4750 2975 4387 
Q 3406 4025 3406 3419 
Q 3406 3131 3298 2873 
Q 3191 2616 2906 2266 
Q 2828 2175 2409 1742 
Q 1991 1309 1228 531 
z
" transform="scale(0.015625)"/>
       </defs>
       <use xlink:href="#DejaVuSans-15"/>
      </g>
     </g>
    </g>
    <g id="xtick_4">
     <g id="line2d_7">
      <path d="M 131.012041 253.99976 
L 131.012041 26.397896 
" clip-path="url(#p14ae0f7545)" style="fill: none; stroke-dasharray: 2.59,1.12; stroke-dashoffset: 0; stroke: #9e9e9e; stroke-opacity: 0.45; stroke-width: 0.7"/>
     </g>
     <g id="line2d_8">
      <g>
       <use xlink:href="#m62e5b3c23a" x="131.012041" y="253.99976" style="stroke: #000000; stroke-width: 0.8"/>
      </g>
     </g>
     <g id="text_4">
      <!-- 3 -->
      <g transform="translate(127.830791 268.597416) scale(0.1 -0.1)">
       <defs>
        <path id="DejaVuSans-16" d="M 2597 2516 
Q 3050 2419 3304 2112 
Q 3559 1806 3559 1356 
Q 3559 666 3084 287 
Q 2609 -91 1734 -91 
Q 1441 -91 1130 -33 
Q 819 25 488 141 
L 488 750 
Q 750 597 1062 519 
Q 1375 441 1716 441 
Q 2309 441 2620 675 
Q 2931 909 2931 1356 
Q 2931 1769 2642 2001 
Q 2353 2234 1838 2234 
L 1294 2234 
L 1294 2753 
L 1863 2753 
Q 2328 2753 2575 2939 
Q 2822 3125 2822 3475 
Q 2822 3834 2567 4026 
Q 2313 4219 1838 4219 
Q 1578 4219 1281 4162 
Q 984 4106 628 3988 
L 628 4550 
Q 988 4650 1302 4700 
Q 1616 4750 1894 4750 
Q 2613 4750 3031 4423 
Q 3450 4097 3450 3541 
Q 3450 3153 3228 2886 
Q 3006 2619 2597 2516 
z
" transform="scale(0.015625)"/>
       </defs>
       <use xlink:href="#DejaVuSans-16"/>
      </g>
     </g>
    </g>
    <g id="xtick_5">
     <g id="line2d_9">
      <path d="M 154.552428 253.99976 
L 154.552428 26.397896 
" clip-path="url(#p14ae0f7545)" style="fill: none; stroke-dasharray: 2.59,1.12; stroke-dashoffset: 0; stroke: #9e9e9e; stroke-opacity: 0.45; stroke-width: 0.7"/>
     </g>
     <g id="line2d_10">
      <g>
       <use xlink:href="#m62e5b3c23a" x="154.552428" y="253.99976" style="stroke: #000000; stroke-width: 0.8"/>
      </g>
     </g>
     <g id="text_5">
      <!-- 4 -->
      <g transform="translate(151.371178 268.597416) scale(0.1 -0.1)">
       <defs>
        <path id="DejaVuSans-17" d="M 2419 4116 
L 825 1625 
L 2419 1625 
L 2419 4116 
z
M 2253 4666 
L 3047 4666 
L 3047 1625 
L 3713 1625 
L 3713 1100 
L 3047 1100 
L 3047 0 
L 2419 0 
L 2419 1100 
L 313 1100 
L 313 1709 
L 2253 4666 
z
" transform="scale(0.015625)"/>
       </defs>
       <use xlink:href="#DejaVuSans-17"/>
      </g>
     </g>
    </g>
    <g id="xtick_6">
     <g id="line2d_11">
      <path d="M 178.092816 253.99976 
L 178.092816 26.397896 
" clip-path="url(#p14ae0f7545)" style="fill: none; stroke-dasharray: 2.59,1.12; stroke-dashoffset: 0; stroke: #9e9e9e; stroke-opacity: 0.45; stroke-width: 0.7"/>
     </g>
     <g id="line2d_12">
      <g>
       <use xlink:href="#m62e5b3c23a" x="178.092816" y="253.99976" style="stroke: #000000; stroke-width: 0.8"/>
      </g>
     </g>
     <g id="text_6">
      <!-- 5 -->
      <g transform="translate(174.911566 268.597416) scale(0.1 -0.1)">
       <defs>
        <path id="DejaVuSans-18" d="M 691 4666 
L 3169 4666 
L 3169 4134 
L 1269 4134 
L 1269 2991 
Q 1406 3038 1543 3061 
Q 1681 3084 1819 3084 
Q 2600 3084 3056 2656 
Q 3513 2228 3513 1497 
Q 3513 744 3044 326 
Q 2575 -91 1722 -91 
Q 1428 -91 1123 -41 
Q 819 9 494 109 
L 494 744 
Q 775 591 1075 516 
Q 1375 441 1709 441 
Q 2250 441 2565 725 
Q 2881 1009 2881 1497 
Q 2881 1984 2565 2268 
Q 2250 2553 1709 2553 
Q 1456 2553 1204 2497 
Q 953 2441 691 2322 
L 691 4666 
z
" transform="scale(0.015625)"/>
       </defs>
       <use xlink:href="#DejaVuSans-18"/>
      </g>
     </g>
    </g>
    <g id="xtick_7">
     <g id="line2d_13">
      <path d="M 201.633203 253.99976 
L 201.633203 26.397896 
" clip-path="url(#p14ae0f7545)" style="fill: none; stroke-dasharray: 2.59,1.12; stroke-dashoffset: 0; stroke: #9e9e9e; stroke-opacity: 0.45; stroke-width: 0.7"/>
     </g>
     <g id="line2d_14">
      <g>
       <use xlink:href="#m62e5b3c23a" x="201.633203" y="253.99976" style="stroke: #000000; stroke-width: 0.8"/>
      </g>
     </g>
     <g id="text_7">
      <!-- 6 -->
      <g transform="translate(198.451953 268.597416) scale(0.1 -0.1)">
       <defs>
        <path id="DejaVuSans-19" d="M 2113 2584 
Q 1688 2584 1439 2293 
Q 1191 2003 1191 1497 
Q 1191 994 1439 701 
Q 1688 409 2113 409 
Q 2538 409 2786 701 
Q 3034 994 3034 1497 
Q 3034 2003 2786 2293 
Q 2538 2584 2113 2584 
z
M 3366 4563 
L 3366 3988 
Q 3128 4100 2886 4159 
Q 2644 4219 2406 4219 
Q 1781 4219 1451 3797 
Q 1122 3375 1075 2522 
Q 1259 2794 1537 2939 
Q 1816 3084 2150 3084 
Q 2853 3084 3261 2657 
Q 3669 2231 3669 1497 
Q 3669 778 3244 343 
Q 2819 -91 2113 -91 
Q 1303 -91 875 529 
Q 447 1150 447 2328 
Q 447 3434 972 4092 
Q 1497 4750 2381 4750 
Q 2619 4750 2861 4703 
Q 3103 4656 3366 4563 
z
" transform="scale(0.015625)"/>
       </defs>
       <use xlink:href="#DejaVuSans-19"/>
      </g>
     </g>
    </g>
    <g id="xtick_8">
     <g id="line2d_15">
      <path d="M 225.173591 253.99976 
L 225.173591 26.397896 
" clip-path="url(#p14ae0f7545)" style="fill: none; stroke-dasharray: 2.59,1.12; stroke-dashoffset: 0; stroke: #9e9e9e; stroke-opacity: 0.45; stroke-width: 0.7"/>
     </g>
     <g id="line2d_16">
      <g>
       <use xlink:href="#m62e5b3c23a" x="225.173591" y="253.99976" style="stroke: #000000; stroke-width: 0.8"/>
      </g>
     </g>
     <g id="text_8">
      <!-- 7 -->
      <g transform="translate(221.992341 268.597416) scale(0.1 -0.1)">
       <defs>
        <path id="DejaVuSans-1a" d="M 525 4666 
L 3525 4666 
L 3525 4397 
L 1831 0 
L 1172 0 
L 2766 4134 
L 525 4134 
L 525 4666 
z
" transform="scale(0.015625)"/>
       </defs>
       <use xlink:href="#DejaVuSans-1a"/>
      </g>
     </g>
    </g>
    <g id="xtick_9">
     <g id="line2d_17">
      <path d="M 248.713978 253.99976 
L 248.713978 26.397896 
" clip-path="url(#p14ae0f7545)" style="fill: none; stroke-dasharray: 2.59,1.12; stroke-dashoffset: 0; stroke: #9e9e9e; stroke-opacity: 0.45; stroke-width: 0.7"/>
     </g>
     <g id="line2d_18">
      <g>
       <use xlink:href="#m62e5b3c23a" x="248.713978" y="253.99976" style="stroke: #000000; stroke-width: 0.8"/>
      </g>
     </g>
     <g id="text_9">
      <!-- 8 -->
      <g transform="translate(245.532728 268.597416) scale(0.1 -0.1)">
       <defs>
        <path id="DejaVuSans-1b" d="M 2034 2216 
Q 1584 2216 1326 1975 
Q 1069 1734 1069 1313 
Q 1069 891 1326 650 
Q 1584 409 2034 409 
Q 2484 409 2743 651 
Q 3003 894 3003 1313 
Q 3003 1734 2745 1975 
Q 2488 2216 2034 2216 
z
M 1403 2484 
Q 997 2584 770 2862 
Q 544 3141 544 3541 
Q 544 4100 942 4425 
Q 1341 4750 2034 4750 
Q 2731 4750 3128 4425 
Q 3525 4100 3525 3541 
Q 3525 3141 3298 2862 
Q 3072 2584 2669 2484 
Q 3125 2378 3379 2068 
Q 3634 1759 3634 1313 
Q 3634 634 3220 271 
Q 2806 -91 2034 -91 
Q 1263 -91 848 271 
Q 434 634 434 1313 
Q 434 1759 690 2068 
Q 947 2378 1403 2484 
z
M 1172 3481 
Q 1172 3119 1398 2916 
Q 1625 2713 2034 2713 
Q 2441 2713 2670 2916 
Q 2900 3119 2900 3481 
Q 2900 3844 2670 4047 
Q 2441 4250 2034 4250 
Q 1625 4250 1398 4047 
Q 1172 3844 1172 3481 
z
" transform="scale(0.015625)"/>
       </defs>
       <use xlink:href="#DejaVuSans-1b"/>
      </g>
     </g>
    </g>
    <g id="xtick_10">
     <g id="line2d_19">
      <path d="M 272.254365 253.99976 
L 272.254365 26.397896 
" clip-path="url(#p14ae0f7545)" style="fill: none; stroke-dasharray: 2.59,1.12; stroke-dashoffset: 0; stroke: #9e9e9e; stroke-opacity: 0.45; stroke-width: 0.7"/>
     </g>
     <g id="line2d_20">
      <g>
       <use xlink:href="#m62e5b3c23a" x="272.254365" y="253.99976" style="stroke: #000000; stroke-width: 0.8"/>
      </g>
     </g>
     <g id="text_10">
      <!-- 9 -->
      <g transform="translate(269.073115 268.597416) scale(0.1 -0.1)">
       <defs>
        <path id="DejaVuSans-1c" d="M 703 97 
L 703 672 
Q 941 559 1184 500 
Q 1428 441 1663 441 
Q 2288 441 2617 861 
Q 2947 1281 2994 2138 
Q 2813 1869 2534 1725 
Q 2256 1581 1919 1581 
Q 1219 1581 811 2004 
Q 403 2428 403 3163 
Q 403 3881 828 4315 
Q 1253 4750 1959 4750 
Q 2769 4750 3195 4129 
Q 3622 3509 3622 2328 
Q 3622 1225 3098 567 
Q 2575 -91 1691 -91 
Q 1453 -91 1209 -44 
Q 966 3 703 97 
z
M 1959 2075 
Q 2384 2075 2632 2365 
Q 2881 2656 2881 3163 
Q 2881 3666 2632 3958 
Q 2384 4250 1959 4250 
Q 1534 4250 1286 3958 
Q 1038 3666 1038 3163 
Q 1038 2656 1286 2365 
Q 1534 2075 1959 2075 
z
" transform="scale(0.015625)"/>
       </defs>
       <use xlink:href="#DejaVuSans-1c"/>
      </g>
     </g>
    </g>
    <g id="xtick_11">
     <g id="line2d_21">
      <path d="M 295.794753 253.99976 
L 295.794753 26.397896 
" clip-path="url(#p14ae0f7545)" style="fill: none; stroke-dasharray: 2.59,1.12; stroke-dashoffset: 0; stroke: #9e9e9e; stroke-opacity: 0.45; stroke-width: 0.7"/>
     </g>
     <g id="line2d_22">
      <g>
       <use xlink:href="#m62e5b3c23a" x="295.794753" y="253.99976" style="stroke: #000000; stroke-width: 0.8"/>
      </g>
     </g>
     <g id="text_11">
      <!-- 10 -->
      <g transform="translate(289.432253 268.597416) scale(0.1 -0.1)">
       <use xlink:href="#DejaVuSans-14"/>
       <use xlink:href="#DejaVuSans-13" transform="translate(63.625 0)"/>
      </g>
     </g>
    </g>
    <g id="xtick_12">
     <g id="line2d_23">
      <path d="M 319.33514 253.99976 
L 319.33514 26.397896 
" clip-path="url(#p14ae0f7545)" style="fill: none; stroke-dasharray: 2.59,1.12; stroke-dashoffset: 0; stroke: #9e9e9e; stroke-opacity: 0.45; stroke-width: 0.7"/>
     </g>
     <g id="line2d_24">
      <g>
       <use xlink:href="#m62e5b3c23a" x="319.33514" y="253.99976" style="stroke: #000000; stroke-width: 0.8"/>
      </g>
     </g>
     <g id="text_12">
      <!-- 11 -->
      <g transform="translate(312.97264 268.597416) scale(0.1 -0.1)">
       <use xlink:href="#DejaVuSans-14"/>
       <use xlink:href="#DejaVuSans-14" transform="translate(63.625 0)"/>
      </g>
     </g>
    </g>
    <g id="xtick_13">
     <g id="line2d_25">
      <path d="M 342.875528 253.99976 
L 342.875528 26.397896 
" clip-path="url(#p14ae0f7545)" style="fill: none; stroke-dasharray: 2.59,1.12; stroke-dashoffset: 0; stroke: #9e9e9e; stroke-opacity: 0.45; stroke-width: 0.7"/>
     </g>
     <g id="line2d_26">
      <g>
       <use xlink:href="#m62e5b3c23a" x="342.875528" y="253.99976" style="stroke: #000000; stroke-width: 0.8"/>
      </g>
     </g>
     <g id="text_13">
      <!-- 12 -->
      <g transform="translate(336.513028 268.597416) scale(0.1 -0.1)">
       <use xlink:href="#DejaVuSans-14"/>
       <use xlink:href="#DejaVuSans-15" transform="translate(63.625 0)"/>
      </g>
     </g>
    </g>
    <g id="text_14">
     <!-- y -->
     <g transform="translate(198.673828 282.597416) scale(0.1 -0.1)">
      <defs>
       <path id="DejaVuSans-5c" d="M 2059 -325 
Q 1816 -950 1584 -1140 
Q 1353 -1331 966 -1331 
L 506 -1331 
L 506 -850 
L 844 -850 
Q 1081 -850 1212 -737 
Q 1344 -625 1503 -206 
L 1606 56 
L 191 3500 
L 800 3500 
L 1894 763 
L 2988 3500 
L 3597 3500 
L 2059 -325 
z
" transform="scale(0.015625)"/>
      </defs>
      <use xlink:href="#DejaVuSans-5c"/>
     </g>
    </g>
   </g>
   <g id="matplotlib.axis_2">
    <g id="ytick_1">
     <g id="line2d_27">
      <path d="M 46.266646 243.654221 
L 356.99976 243.654221 
" clip-path="url(#p14ae0f7545)" style="fill: none; stroke-dasharray: 2.59,1.12; stroke-dashoffset: 0; stroke: #9e9e9e; stroke-opacity: 0.45; stroke-width: 0.7"/>
     </g>
     <g id="line2d_28">
      <defs>
       <path id="m09674a03bb" d="M 0 0 
L -3.5 0 
" style="stroke: #000000; stroke-width: 0.8"/>
      </defs>
      <g>
       <use xlink:href="#m09674a03bb" x="46.266646" y="243.654221" style="stroke: #000000; stroke-width: 0.8"/>
      </g>
     </g>
     <g id="text_15">
      <!-- 0.00 -->
      <g transform="translate(17.001021 247.453049) scale(0.1 -0.1)">
       <defs>
        <path id="DejaVuSans-11" d="M 684 794 
L 1344 794 
L 1344 0 
L 684 0 
L 684 794 
z
" transform="scale(0.015625)"/>
       </defs>
       <use xlink:href="#DejaVuSans-13"/>
       <use xlink:href="#DejaVuSans-11" transform="translate(63.625 0)"/>
       <use xlink:href="#DejaVuSans-13" transform="translate(95.40625 0)"/>
       <use xlink:href="#DejaVuSans-13" transform="translate(159.03125 0)"/>
      </g>
     </g>
    </g>
    <g id="ytick_2">
     <g id="line2d_29">
      <path d="M 46.266646 207.157879 
L 356.99976 207.157879 
" clip-path="url(#p14ae0f7545)" style="fill: none; stroke-dasharray: 2.59,1.12; stroke-dashoffset: 0; stroke: #9e9e9e; stroke-opacity: 0.45; stroke-width: 0.7"/>
     </g>
     <g id="line2d_30">
      <g>
       <use xlink:href="#m09674a03bb" x="46.266646" y="207.157879" style="stroke: #000000; stroke-width: 0.8"/>
      </g>
     </g>
     <g id="text_16">
      <!-- 0.05 -->
      <g transform="translate(17.001021 210.956707) scale(0.1 -0.1)">
       <use xlink:href="#DejaVuSans-13"/>
       <use xlink:href="#DejaVuSans-11" transform="translate(63.625 0)"/>
       <use xlink:href="#DejaVuSans-13" transform="translate(95.40625 0)"/>
       <use xlink:href="#DejaVuSans-18" transform="translate(159.03125 0)"/>
      </g>
     </g>
    </g>
    <g id="ytick_3">
     <g id="line2d_31">
      <path d="M 46.266646 170.661537 
L 356.99976 170.661537 
" clip-path="url(#p14ae0f7545)" style="fill: none; stroke-dasharray: 2.59,1.12; stroke-dashoffset: 0; stroke: #9e9e9e; stroke-opacity: 0.45; stroke-width: 0.7"/>
     </g>
     <g id="line2d_32">
      <g>
       <use xlink:href="#m09674a03bb" x="46.266646" y="170.661537" style="stroke: #000000; stroke-width: 0.8"/>
      </g>
     </g>
     <g id="text_17">
      <!-- 0.10 -->
      <g transform="translate(17.001021 174.460365) scale(0.1 -0.1)">
       <use xlink:href="#DejaVuSans-13"/>
       <use xlink:href="#DejaVuSans-11" transform="translate(63.625 0)"/>
       <use xlink:href="#DejaVuSans-14" transform="translate(95.40625 0)"/>
       <use xlink:href="#DejaVuSans-13" transform="translate(159.03125 0)"/>
      </g>
     </g>
    </g>
    <g id="ytick_4">
     <g id="line2d_33">
      <path d="M 46.266646 134.165195 
L 356.99976 134.165195 
" clip-path="url(#p14ae0f7545)" style="fill: none; stroke-dasharray: 2.59,1.12; stroke-dashoffset: 0; stroke: #9e9e9e; stroke-opacity: 0.45; stroke-width: 0.7"/>
     </g>
     <g id="line2d_34">
      <g>
       <use xlink:href="#m09674a03bb" x="46.266646" y="134.165195" style="stroke: #000000; stroke-width: 0.8"/>
      </g>
     </g>
     <g id="text_18">
      <!-- 0.15 -->
      <g transform="translate(17.001021 137.964023) scale(0.1 -0.1)">
       <use xlink:href="#DejaVuSans-13"/>
       <use xlink:href="#DejaVuSans-11" transform="translate(63.625 0)"/>
       <use xlink:href="#DejaVuSans-14" transform="translate(95.40625 0)"/>
       <use xlink:href="#DejaVuSans-18" transform="translate(159.03125 0)"/>
      </g>
     </g>
    </g>
    <g id="ytick_5">
     <g id="line2d_35">
      <path d="M 46.266646 97.668853 
L 356.99976 97.668853 
" clip-path="url(#p14ae0f7545)" style="fill: none; stroke-dasharray: 2.59,1.12; stroke-dashoffset: 0; stroke: #9e9e9e; stroke-opacity: 0.45; stroke-width: 0.7"/>
     </g>
     <g id="line2d_36">
      <g>
       <use xlink:href="#m09674a03bb" x="46.266646" y="97.668853" style="stroke: #000000; stroke-width: 0.8"/>
      </g>
     </g>
     <g id="text_19">
      <!-- 0.20 -->
      <g transform="translate(17.001021 101.467681) scale(0.1 -0.1)">
       <use xlink:href="#DejaVuSans-13"/>
       <use xlink:href="#DejaVuSans-11" transform="translate(63.625 0)"/>
       <use xlink:href="#DejaVuSans-15" transform="translate(95.40625 0)"/>
       <use xlink:href="#DejaVuSans-13" transform="translate(159.03125 0)"/>
      </g>
     </g>
    </g>
    <g id="ytick_6">
     <g id="line2d_37">
      <path d="M 46.266646 61.172511 
L 356.99976 61.172511 
" clip-path="url(#p14ae0f7545)" style="fill: none; stroke-dasharray: 2.59,1.12; stroke-dashoffset: 0; stroke: #9e9e9e; stroke-opacity: 0.45; stroke-width: 0.7"/>
     </g>
     <g id="line2d_38">
      <g>
       <use xlink:href="#m09674a03bb" x="46.266646" y="61.172511" style="stroke: #000000; stroke-width: 0.8"/>
      </g>
     </g>
     <g id="text_20">
      <!-- 0.25 -->
      <g transform="translate(17.001021 64.971339) scale(0.1 -0.1)">
       <use xlink:href="#DejaVuSans-13"/>
       <use xlink:href="#DejaVuSans-11" transform="translate(63.625 0)"/>
       <use xlink:href="#DejaVuSans-15" transform="translate(95.40625 0)"/>
       <use xlink:href="#DejaVuSans-18" transform="translate(159.03125 0)"/>
      </g>
     </g>
    </g>
    <g id="text_21">
     <!-- probability mass -->
     <g transform="translate(10.598677 181.609766) rotate(-90) scale(0.1 -0.1)">
      <defs>
       <path id="DejaVuSans-53" d="M 1159 525 
L 1159 -1331 
L 581 -1331 
L 581 3500 
L 1159 3500 
L 1159 2969 
Q 1341 3281 1617 3432 
Q 1894 3584 2278 3584 
Q 2916 3584 3314 3078 
Q 3713 2572 3713 1747 
Q 3713 922 3314 415 
Q 2916 -91 2278 -91 
Q 1894 -91 1617 61 
Q 1341 213 1159 525 
z
M 3116 1747 
Q 3116 2381 2855 2742 
Q 2594 3103 2138 3103 
Q 1681 3103 1420 2742 
Q 1159 2381 1159 1747 
Q 1159 1113 1420 752 
Q 1681 391 2138 391 
Q 2594 391 2855 752 
Q 3116 1113 3116 1747 
z
" transform="scale(0.015625)"/>
       <path id="DejaVuSans-55" d="M 2631 2963 
Q 2534 3019 2420 3045 
Q 2306 3072 2169 3072 
Q 1681 3072 1420 2755 
Q 1159 2438 1159 1844 
L 1159 0 
L 581 0 
L 581 3500 
L 1159 3500 
L 1159 2956 
Q 1341 3275 1631 3429 
Q 1922 3584 2338 3584 
Q 2397 3584 2469 3576 
Q 2541 3569 2628 3553 
L 2631 2963 
z
" transform="scale(0.015625)"/>
       <path id="DejaVuSans-52" d="M 1959 3097 
Q 1497 3097 1228 2736 
Q 959 2375 959 1747 
Q 959 1119 1226 758 
Q 1494 397 1959 397 
Q 2419 397 2687 759 
Q 2956 1122 2956 1747 
Q 2956 2369 2687 2733 
Q 2419 3097 1959 3097 
z
M 1959 3584 
Q 2709 3584 3137 3096 
Q 3566 2609 3566 1747 
Q 3566 888 3137 398 
Q 2709 -91 1959 -91 
Q 1206 -91 779 398 
Q 353 888 353 1747 
Q 353 2609 779 3096 
Q 1206 3584 1959 3584 
z
" transform="scale(0.015625)"/>
       <path id="DejaVuSans-45" d="M 3116 1747 
Q 3116 2381 2855 2742 
Q 2594 3103 2138 3103 
Q 1681 3103 1420 2742 
Q 1159 2381 1159 1747 
Q 1159 1113 1420 752 
Q 1681 391 2138 391 
Q 2594 391 2855 752 
Q 3116 1113 3116 1747 
z
M 1159 2969 
Q 1341 3281 1617 3432 
Q 1894 3584 2278 3584 
Q 2916 3584 3314 3078 
Q 3713 2572 3713 1747 
Q 3713 922 3314 415 
Q 2916 -91 2278 -91 
Q 1894 -91 1617 61 
Q 1341 213 1159 525 
L 1159 0 
L 581 0 
L 581 4863 
L 1159 4863 
L 1159 2969 
z
" transform="scale(0.015625)"/>
       <path id="DejaVuSans-44" d="M 2194 1759 
Q 1497 1759 1228 1600 
Q 959 1441 959 1056 
Q 959 750 1161 570 
Q 1363 391 1709 391 
Q 2188 391 2477 730 
Q 2766 1069 2766 1631 
L 2766 1759 
L 2194 1759 
z
M 3341 1997 
L 3341 0 
L 2766 0 
L 2766 531 
Q 2569 213 2275 61 
Q 1981 -91 1556 -91 
Q 1019 -91 701 211 
Q 384 513 384 1019 
Q 384 1609 779 1909 
Q 1175 2209 1959 2209 
L 2766 2209 
L 2766 2266 
Q 2766 2663 2505 2880 
Q 2244 3097 1772 3097 
Q 1472 3097 1187 3025 
Q 903 2953 641 2809 
L 641 3341 
Q 956 3463 1253 3523 
Q 1550 3584 1831 3584 
Q 2591 3584 2966 3190 
Q 3341 2797 3341 1997 
z
" transform="scale(0.015625)"/>
       <path id="DejaVuSans-4c" d="M 603 3500 
L 1178 3500 
L 1178 0 
L 603 0 
L 603 3500 
z
M 603 4863 
L 1178 4863 
L 1178 4134 
L 603 4134 
L 603 4863 
z
" transform="scale(0.015625)"/>
       <path id="DejaVuSans-4f" d="M 603 4863 
L 1178 4863 
L 1178 0 
L 603 0 
L 603 4863 
z
" transform="scale(0.015625)"/>
       <path id="DejaVuSans-57" d="M 1172 4494 
L 1172 3500 
L 2356 3500 
L 2356 3053 
L 1172 3053 
L 1172 1153 
Q 1172 725 1289 603 
Q 1406 481 1766 481 
L 2356 481 
L 2356 0 
L 1766 0 
Q 1100 0 847 248 
Q 594 497 594 1153 
L 594 3053 
L 172 3053 
L 172 3500 
L 594 3500 
L 594 4494 
L 1172 4494 
z
" transform="scale(0.015625)"/>
       <path id="DejaVuSans-3" transform="scale(0.015625)"/>
       <path id="DejaVuSans-50" d="M 3328 2828 
Q 3544 3216 3844 3400 
Q 4144 3584 4550 3584 
Q 5097 3584 5394 3201 
Q 5691 2819 5691 2113 
L 5691 0 
L 5113 0 
L 5113 2094 
Q 5113 2597 4934 2840 
Q 4756 3084 4391 3084 
Q 3944 3084 3684 2787 
Q 3425 2491 3425 1978 
L 3425 0 
L 2847 0 
L 2847 2094 
Q 2847 2600 2669 2842 
Q 2491 3084 2119 3084 
Q 1678 3084 1418 2786 
Q 1159 2488 1159 1978 
L 1159 0 
L 581 0 
L 581 3500 
L 1159 3500 
L 1159 2956 
Q 1356 3278 1631 3431 
Q 1906 3584 2284 3584 
Q 2666 3584 2933 3390 
Q 3200 3197 3328 2828 
z
" transform="scale(0.015625)"/>
       <path id="DejaVuSans-56" d="M 2834 3397 
L 2834 2853 
Q 2591 2978 2328 3040 
Q 2066 3103 1784 3103 
Q 1356 3103 1142 2972 
Q 928 2841 928 2578 
Q 928 2378 1081 2264 
Q 1234 2150 1697 2047 
L 1894 2003 
Q 2506 1872 2764 1633 
Q 3022 1394 3022 966 
Q 3022 478 2636 193 
Q 2250 -91 1575 -91 
Q 1294 -91 989 -36 
Q 684 19 347 128 
L 347 722 
Q 666 556 975 473 
Q 1284 391 1588 391 
Q 1994 391 2212 530 
Q 2431 669 2431 922 
Q 2431 1156 2273 1281 
Q 2116 1406 1581 1522 
L 1381 1569 
Q 847 1681 609 1914 
Q 372 2147 372 2553 
Q 372 3047 722 3315 
Q 1072 3584 1716 3584 
Q 2034 3584 2315 3537 
Q 2597 3491 2834 3397 
z
" transform="scale(0.015625)"/>
      </defs>
      <use xlink:href="#DejaVuSans-53"/>
      <use xlink:href="#DejaVuSans-55" transform="translate(63.484375 0)"/>
      <use xlink:href="#DejaVuSans-52" transform="translate(102.390625 0)"/>
      <use xlink:href="#DejaVuSans-45" transform="translate(163.578125 0)"/>
      <use xlink:href="#DejaVuSans-44" transform="translate(227.0625 0)"/>
      <use xlink:href="#DejaVuSans-45" transform="translate(288.34375 0)"/>
      <use xlink:href="#DejaVuSans-4c" transform="translate(351.828125 0)"/>
      <use xlink:href="#DejaVuSans-4f" transform="translate(379.609375 0)"/>
      <use xlink:href="#DejaVuSans-4c" transform="translate(407.390625 0)"/>
      <use xlink:href="#DejaVuSans-57" transform="translate(435.171875 0)"/>
      <use xlink:href="#DejaVuSans-5c" transform="translate(474.375 0)"/>
      <use xlink:href="#DejaVuSans-3" transform="translate(533.5625 0)"/>
      <use xlink:href="#DejaVuSans-50" transform="translate(565.34375 0)"/>
      <use xlink:href="#DejaVuSans-44" transform="translate(662.75 0)"/>
      <use xlink:href="#DejaVuSans-56" transform="translate(724.03125 0)"/>
      <use xlink:href="#DejaVuSans-56" transform="translate(776.125 0)"/>
     </g>
    </g>
   </g>
   <g id="LineCollection_1">
    <path d="M 60.390879 243.654221 
L 60.390879 193.49403 
" clip-path="url(#p14ae0f7545)" style="fill: none; stroke: #e41a1c; stroke-opacity: 0.8; stroke-width: 1.4"/>
    <path d="M 83.931266 243.654221 
L 83.931266 93.17365 
" clip-path="url(#p14ae0f7545)" style="fill: none; stroke: #e41a1c; stroke-opacity: 0.8; stroke-width: 1.4"/>
    <path d="M 107.471654 243.654221 
L 107.471654 36.743436 
" clip-path="url(#p14ae0f7545)" style="fill: none; stroke: #e41a1c; stroke-opacity: 0.8; stroke-width: 1.4"/>
    <path d="M 131.012041 243.654221 
L 131.012041 71.228566 
" clip-path="url(#p14ae0f7545)" style="fill: none; stroke: #e41a1c; stroke-opacity: 0.8; stroke-width: 1.4"/>
    <path d="M 154.552428 243.654221 
L 154.552428 146.66479 
" clip-path="url(#p14ae0f7545)" style="fill: none; stroke: #e41a1c; stroke-opacity: 0.8; stroke-width: 1.4"/>
    <path d="M 178.092816 243.654221 
L 178.092816 204.858449 
" clip-path="url(#p14ae0f7545)" style="fill: none; stroke: #e41a1c; stroke-opacity: 0.8; stroke-width: 1.4"/>
    <path d="M 201.633203 243.654221 
L 201.633203 232.338787 
" clip-path="url(#p14ae0f7545)" style="fill: none; stroke: #e41a1c; stroke-opacity: 0.8; stroke-width: 1.4"/>
    <path d="M 225.173591 243.654221 
L 225.173591 241.229485 
" clip-path="url(#p14ae0f7545)" style="fill: none; stroke: #e41a1c; stroke-opacity: 0.8; stroke-width: 1.4"/>
    <path d="M 248.713978 243.654221 
L 248.713978 243.275356 
" clip-path="url(#p14ae0f7545)" style="fill: none; stroke: #e41a1c; stroke-opacity: 0.8; stroke-width: 1.4"/>
    <path d="M 272.254365 243.654221 
L 272.254365 243.612125 
" clip-path="url(#p14ae0f7545)" style="fill: none; stroke: #e41a1c; stroke-opacity: 0.8; stroke-width: 1.4"/>
    <path d="M 295.794753 243.654221 
L 295.794753 243.651064 
" clip-path="url(#p14ae0f7545)" style="fill: none; stroke: #e41a1c; stroke-opacity: 0.8; stroke-width: 1.4"/>
    <path d="M 319.33514 243.654221 
L 319.33514 243.654077 
" clip-path="url(#p14ae0f7545)" style="fill: none; stroke: #e41a1c; stroke-opacity: 0.8; stroke-width: 1.4"/>
    <path d="M 342.875528 243.654221 
L 342.875528 243.654218 
" clip-path="url(#p14ae0f7545)" style="fill: none; stroke: #e41a1c; stroke-opacity: 0.8; stroke-width: 1.4"/>
   </g>
   <g id="line2d_39">
    <defs>
     <path id="m22516f46b5" d="M 0 2 
C 0.530406 2 1.03916 1.789267 1.414214 1.414214 
C 1.789267 1.03916 2 0.530406 2 0 
C 2 -0.530406 1.789267 -1.03916 1.414214 -1.414214 
C 1.03916 -1.789267 0.530406 -2 0 -2 
C -0.530406 -2 -1.03916 -1.789267 -1.414214 -1.414214 
C -1.789267 -1.03916 -2 -0.530406 -2 0 
C -2 0.530406 -1.789267 1.03916 -1.414214 1.414214 
C -1.03916 1.789267 -0.530406 2 0 2 
z
" style="stroke: #e41a1c"/>
    </defs>
    <g clip-path="url(#p14ae0f7545)">
     <use xlink:href="#m22516f46b5" x="60.390879" y="193.49403" style="fill: #e41a1c; stroke: #e41a1c"/>
     <use xlink:href="#m22516f46b5" x="83.931266" y="93.17365" style="fill: #e41a1c; stroke: #e41a1c"/>
     <use xlink:href="#m22516f46b5" x="107.471654" y="36.743436" style="fill: #e41a1c; stroke: #e41a1c"/>
     <use xlink:href="#m22516f46b5" x="131.012041" y="71.228566" style="fill: #e41a1c; stroke: #e41a1c"/>
     <use xlink:href="#m22516f46b5" x="154.552428" y="146.66479" style="fill: #e41a1c; stroke: #e41a1c"/>
     <use xlink:href="#m22516f46b5" x="178.092816" y="204.858449" style="fill: #e41a1c; stroke: #e41a1c"/>
     <use xlink:href="#m22516f46b5" x="201.633203" y="232.338787" style="fill: #e41a1c; stroke: #e41a1c"/>
     <use xlink:href="#m22516f46b5" x="225.173591" y="241.229485" style="fill: #e41a1c; stroke: #e41a1c"/>
     <use xlink:href="#m22516f46b5" x="248.713978" y="243.275356" style="fill: #e41a1c; stroke: #e41a1c"/>
     <use xlink:href="#m22516f46b5" x="272.254365" y="243.612125" style="fill: #e41a1c; stroke: #e41a1c"/>
     <use xlink:href="#m22516f46b5" x="295.794753" y="243.651064" style="fill: #e41a1c; stroke: #e41a1c"/>
     <use xlink:href="#m22516f46b5" x="319.33514" y="243.654077" style="fill: #e41a1c; stroke: #e41a1c"/>
     <use xlink:href="#m22516f46b5" x="342.875528" y="243.654218" style="fill: #e41a1c; stroke: #e41a1c"/>
    </g>
   </g>
   <g id="LineCollection_2">
    <path d="M 60.390879 243.654221 
L 60.390879 243.476016 
" clip-path="url(#p14ae0f7545)" style="fill: none; stroke: #ff9800; stroke-opacity: 0.8; stroke-width: 1.4"/>
    <path d="M 83.931266 243.654221 
L 83.931266 241.515763 
" clip-path="url(#p14ae0f7545)" style="fill: none; stroke: #ff9800; stroke-opacity: 0.8; stroke-width: 1.4"/>
    <path d="M 107.471654 243.654221 
L 107.471654 231.892704 
" clip-path="url(#p14ae0f7545)" style="fill: none; stroke: #ff9800; stroke-opacity: 0.8; stroke-width: 1.4"/>
    <path d="M 131.012041 243.654221 
L 131.012041 204.449166 
" clip-path="url(#p14ae0f7545)" style="fill: none; stroke: #ff9800; stroke-opacity: 0.8; stroke-width: 1.4"/>
    <path d="M 154.552428 243.654221 
L 154.552428 155.442848 
" clip-path="url(#p14ae0f7545)" style="fill: none; stroke: #ff9800; stroke-opacity: 0.8; stroke-width: 1.4"/>
    <path d="M 178.092816 243.654221 
L 178.092816 102.516024 
" clip-path="url(#p14ae0f7545)" style="fill: none; stroke: #ff9800; stroke-opacity: 0.8; stroke-width: 1.4"/>
    <path d="M 201.633203 243.654221 
L 201.633203 78.992991 
" clip-path="url(#p14ae0f7545)" style="fill: none; stroke: #ff9800; stroke-opacity: 0.8; stroke-width: 1.4"/>
    <path d="M 225.173591 243.654221 
L 225.173591 102.516024 
" clip-path="url(#p14ae0f7545)" style="fill: none; stroke: #ff9800; stroke-opacity: 0.8; stroke-width: 1.4"/>
    <path d="M 248.713978 243.654221 
L 248.713978 155.442848 
" clip-path="url(#p14ae0f7545)" style="fill: none; stroke: #ff9800; stroke-opacity: 0.8; stroke-width: 1.4"/>
    <path d="M 272.254365 243.654221 
L 272.254365 204.449166 
" clip-path="url(#p14ae0f7545)" style="fill: none; stroke: #ff9800; stroke-opacity: 0.8; stroke-width: 1.4"/>
    <path d="M 295.794753 243.654221 
L 295.794753 231.892704 
" clip-path="url(#p14ae0f7545)" style="fill: none; stroke: #ff9800; stroke-opacity: 0.8; stroke-width: 1.4"/>
    <path d="M 319.33514 243.654221 
L 319.33514 241.515763 
" clip-path="url(#p14ae0f7545)" style="fill: none; stroke: #ff9800; stroke-opacity: 0.8; stroke-width: 1.4"/>
    <path d="M 342.875528 243.654221 
L 342.875528 243.476016 
" clip-path="url(#p14ae0f7545)" style="fill: none; stroke: #ff9800; stroke-opacity: 0.8; stroke-width: 1.4"/>
   </g>
   <g id="line2d_40">
    <defs>
     <path id="m2423ecdba6" d="M 0 2 
C 0.530406 2 1.03916 1.789267 1.414214 1.414214 
C 1.789267 1.03916 2 0.530406 2 0 
C 2 -0.530406 1.789267 -1.03916 1.414214 -1.414214 
C 1.03916 -1.789267 0.530406 -2 0 -2 
C -0.530406 -2 -1.03916 -1.789267 -1.414214 -1.414214 
C -1.789267 -1.03916 -2 -0.530406 -2 0 
C -2 0.530406 -1.789267 1.03916 -1.414214 1.414214 
C -1.03916 1.789267 -0.530406 2 0 2 
z
" style="stroke: #ff9800"/>
    </defs>
    <g clip-path="url(#p14ae0f7545)">
     <use xlink:href="#m2423ecdba6" x="60.390879" y="243.476016" style="fill: #ff9800; stroke: #ff9800"/>
     <use xlink:href="#m2423ecdba6" x="83.931266" y="241.515763" style="fill: #ff9800; stroke: #ff9800"/>
     <use xlink:href="#m2423ecdba6" x="107.471654" y="231.892704" style="fill: #ff9800; stroke: #ff9800"/>
     <use xlink:href="#m2423ecdba6" x="131.012041" y="204.449166" style="fill: #ff9800; stroke: #ff9800"/>
     <use xlink:href="#m2423ecdba6" x="154.552428" y="155.442848" style="fill: #ff9800; stroke: #ff9800"/>
     <use xlink:href="#m2423ecdba6" x="178.092816" y="102.516024" style="fill: #ff9800; stroke: #ff9800"/>
     <use xlink:href="#m2423ecdba6" x="201.633203" y="78.992991" style="fill: #ff9800; stroke: #ff9800"/>
     <use xlink:href="#m2423ecdba6" x="225.173591" y="102.516024" style="fill: #ff9800; stroke: #ff9800"/>
     <use xlink:href="#m2423ecdba6" x="248.713978" y="155.442848" style="fill: #ff9800; stroke: #ff9800"/>
     <use xlink:href="#m2423ecdba6" x="272.254365" y="204.449166" style="fill: #ff9800; stroke: #ff9800"/>
     <use xlink:href="#m2423ecdba6" x="295.794753" y="231.892704" style="fill: #ff9800; stroke: #ff9800"/>
     <use xlink:href="#m2423ecdba6" x="319.33514" y="241.515763" style="fill: #ff9800; stroke: #ff9800"/>
     <use xlink:href="#m2423ecdba6" x="342.875528" y="243.476016" style="fill: #ff9800; stroke: #ff9800"/>
    </g>
   </g>
   <g id="LineCollection_3">
    <path d="M 60.390879 243.654221 
L 60.390879 243.654218 
" clip-path="url(#p14ae0f7545)" style="fill: none; stroke: #00c853; stroke-opacity: 0.8; stroke-width: 1.4"/>
    <path d="M 83.931266 243.654221 
L 83.931266 243.654077 
" clip-path="url(#p14ae0f7545)" style="fill: none; stroke: #00c853; stroke-opacity: 0.8; stroke-width: 1.4"/>
    <path d="M 107.471654 243.654221 
L 107.471654 243.651064 
" clip-path="url(#p14ae0f7545)" style="fill: none; stroke: #00c853; stroke-opacity: 0.8; stroke-width: 1.4"/>
    <path d="M 131.012041 243.654221 
L 131.012041 243.612125 
" clip-path="url(#p14ae0f7545)" style="fill: none; stroke: #00c853; stroke-opacity: 0.8; stroke-width: 1.4"/>
    <path d="M 154.552428 243.654221 
L 154.552428 243.275356 
" clip-path="url(#p14ae0f7545)" style="fill: none; stroke: #00c853; stroke-opacity: 0.8; stroke-width: 1.4"/>
    <path d="M 178.092816 243.654221 
L 178.092816 241.229485 
" clip-path="url(#p14ae0f7545)" style="fill: none; stroke: #00c853; stroke-opacity: 0.8; stroke-width: 1.4"/>
    <path d="M 201.633203 243.654221 
L 201.633203 232.338787 
" clip-path="url(#p14ae0f7545)" style="fill: none; stroke: #00c853; stroke-opacity: 0.8; stroke-width: 1.4"/>
    <path d="M 225.173591 243.654221 
L 225.173591 204.858449 
" clip-path="url(#p14ae0f7545)" style="fill: none; stroke: #00c853; stroke-opacity: 0.8; stroke-width: 1.4"/>
    <path d="M 248.713978 243.654221 
L 248.713978 146.66479 
" clip-path="url(#p14ae0f7545)" style="fill: none; stroke: #00c853; stroke-opacity: 0.8; stroke-width: 1.4"/>
    <path d="M 272.254365 243.654221 
L 272.254365 71.228566 
" clip-path="url(#p14ae0f7545)" style="fill: none; stroke: #00c853; stroke-opacity: 0.8; stroke-width: 1.4"/>
    <path d="M 295.794753 243.654221 
L 295.794753 36.743436 
" clip-path="url(#p14ae0f7545)" style="fill: none; stroke: #00c853; stroke-opacity: 0.8; stroke-width: 1.4"/>
    <path d="M 319.33514 243.654221 
L 319.33514 93.17365 
" clip-path="url(#p14ae0f7545)" style="fill: none; stroke: #00c853; stroke-opacity: 0.8; stroke-width: 1.4"/>
    <path d="M 342.875528 243.654221 
L 342.875528 193.49403 
" clip-path="url(#p14ae0f7545)" style="fill: none; stroke: #00c853; stroke-opacity: 0.8; stroke-width: 1.4"/>
   </g>
   <g id="line2d_41">
    <defs>
     <path id="m154e8d73b0" d="M 0 2 
C 0.530406 2 1.03916 1.789267 1.414214 1.414214 
C 1.789267 1.03916 2 0.530406 2 0 
C 2 -0.530406 1.789267 -1.03916 1.414214 -1.414214 
C 1.03916 -1.789267 0.530406 -2 0 -2 
C -0.530406 -2 -1.03916 -1.789267 -1.414214 -1.414214 
C -1.789267 -1.03916 -2 -0.530406 -2 0 
C -2 0.530406 -1.789267 1.03916 -1.414214 1.414214 
C -1.03916 1.789267 -0.530406 2 0 2 
z
" style="stroke: #00c853"/>
    </defs>
    <g clip-path="url(#p14ae0f7545)">
     <use xlink:href="#m154e8d73b0" x="60.390879" y="243.654218" style="fill: #00c853; stroke: #00c853"/>
     <use xlink:href="#m154e8d73b0" x="83.931266" y="243.654077" style="fill: #00c853; stroke: #00c853"/>
     <use xlink:href="#m154e8d73b0" x="107.471654" y="243.651064" style="fill: #00c853; stroke: #00c853"/>
     <use xlink:href="#m154e8d73b0" x="131.012041" y="243.612125" style="fill: #00c853; stroke: #00c853"/>
     <use xlink:href="#m154e8d73b0" x="154.552428" y="243.275356" style="fill: #00c853; stroke: #00c853"/>
     <use xlink:href="#m154e8d73b0" x="178.092816" y="241.229485" style="fill: #00c853; stroke: #00c853"/>
     <use xlink:href="#m154e8d73b0" x="201.633203" y="232.338787" style="fill: #00c853; stroke: #00c853"/>
     <use xlink:href="#m154e8d73b0" x="225.173591" y="204.858449" style="fill: #00c853; stroke: #00c853"/>
     <use xlink:href="#m154e8d73b0" x="248.713978" y="146.66479" style="fill: #00c853; stroke: #00c853"/>
     <use xlink:href="#m154e8d73b0" x="272.254365" y="71.228566" style="fill: #00c853; stroke: #00c853"/>
     <use xlink:href="#m154e8d73b0" x="295.794753" y="36.743436" style="fill: #00c853; stroke: #00c853"/>
     <use xlink:href="#m154e8d73b0" x="319.33514" y="93.17365" style="fill: #00c853; stroke: #00c853"/>
     <use xlink:href="#m154e8d73b0" x="342.875528" y="193.49403" style="fill: #00c853; stroke: #00c853"/>
    </g>
   </g>
   <g id="patch_3">
    <path d="M 46.266646 253.99976 
L 46.266646 26.397896 
" style="fill: none; stroke: #000000; stroke-width: 0.8; stroke-linejoin: miter; stroke-linecap: square"/>
   </g>
   <g id="patch_4">
    <path d="M 46.266646 253.99976 
L 356.99976 253.99976 
" style="fill: none; stroke: #000000; stroke-width: 0.8; stroke-linejoin: miter; stroke-linecap: square"/>
   </g>
   <g id="text_22">
    <!-- Binomial distribution (fixed trials, n=12) -->
    <g transform="translate(50.899609 14.397896) scale(0.15 -0.15)">
     <defs>
      <path id="DejaVuSans-25" d="M 1259 2228 
L 1259 519 
L 2272 519 
Q 2781 519 3026 730 
Q 3272 941 3272 1375 
Q 3272 1813 3026 2020 
Q 2781 2228 2272 2228 
L 1259 2228 
z
M 1259 4147 
L 1259 2741 
L 2194 2741 
Q 2656 2741 2882 2914 
Q 3109 3088 3109 3444 
Q 3109 3797 2882 3972 
Q 2656 4147 2194 4147 
L 1259 4147 
z
M 628 4666 
L 2241 4666 
Q 2963 4666 3353 4366 
Q 3744 4066 3744 3513 
Q 3744 3084 3544 2831 
Q 3344 2578 2956 2516 
Q 3422 2416 3680 2098 
Q 3938 1781 3938 1306 
Q 3938 681 3513 340 
Q 3088 0 2303 0 
L 628 0 
L 628 4666 
z
" transform="scale(0.015625)"/>
      <path id="DejaVuSans-51" d="M 3513 2113 
L 3513 0 
L 2938 0 
L 2938 2094 
Q 2938 2591 2744 2837 
Q 2550 3084 2163 3084 
Q 1697 3084 1428 2787 
Q 1159 2491 1159 1978 
L 1159 0 
L 581 0 
L 581 3500 
L 1159 3500 
L 1159 2956 
Q 1366 3272 1645 3428 
Q 1925 3584 2291 3584 
Q 2894 3584 3203 3211 
Q 3513 2838 3513 2113 
z
" transform="scale(0.015625)"/>
      <path id="DejaVuSans-47" d="M 2906 2969 
L 2906 4863 
L 3481 4863 
L 3481 0 
L 2906 0 
L 2906 525 
Q 2725 213 2448 61 
Q 2172 -91 1784 -91 
Q 1150 -91 751 415 
Q 353 922 353 1747 
Q 353 2572 751 3078 
Q 1150 3584 1784 3584 
Q 2172 3584 2448 3432 
Q 2725 3281 2906 2969 
z
M 947 1747 
Q 947 1113 1208 752 
Q 1469 391 1925 391 
Q 2381 391 2643 752 
Q 2906 1113 2906 1747 
Q 2906 2381 2643 2742 
Q 2381 3103 1925 3103 
Q 1469 3103 1208 2742 
Q 947 2381 947 1747 
z
" transform="scale(0.015625)"/>
      <path id="DejaVuSans-58" d="M 544 1381 
L 544 3500 
L 1119 3500 
L 1119 1403 
Q 1119 906 1312 657 
Q 1506 409 1894 409 
Q 2359 409 2629 706 
Q 2900 1003 2900 1516 
L 2900 3500 
L 3475 3500 
L 3475 0 
L 2900 0 
L 2900 538 
Q 2691 219 2414 64 
Q 2138 -91 1772 -91 
Q 1169 -91 856 284 
Q 544 659 544 1381 
z
M 1991 3584 
L 1991 3584 
z
" transform="scale(0.015625)"/>
      <path id="DejaVuSans-b" d="M 1984 4856 
Q 1566 4138 1362 3434 
Q 1159 2731 1159 2009 
Q 1159 1288 1364 580 
Q 1569 -128 1984 -844 
L 1484 -844 
Q 1016 -109 783 600 
Q 550 1309 550 2009 
Q 550 2706 781 3412 
Q 1013 4119 1484 4856 
L 1984 4856 
z
" transform="scale(0.015625)"/>
      <path id="DejaVuSans-13af" d="M 3431 3500 
L 3431 0 
L 2853 0 
L 2853 3053 
L 1275 3053 
L 1275 0 
L 697 0 
L 697 3053 
L 147 3053 
L 147 3500 
L 697 3500 
L 697 3744 
Q 697 4316 967 4589 
Q 1238 4863 1797 4863 
L 2375 4863 
L 2375 4384 
L 1825 4384 
Q 1516 4384 1395 4259 
Q 1275 4134 1275 3809 
L 1275 3500 
L 3431 3500 
z
M 2853 4856 
L 3431 4856 
L 3431 4128 
L 2853 4128 
L 2853 4856 
z
" transform="scale(0.015625)"/>
      <path id="DejaVuSans-5b" d="M 3513 3500 
L 2247 1797 
L 3578 0 
L 2900 0 
L 1881 1375 
L 863 0 
L 184 0 
L 1544 1831 
L 300 3500 
L 978 3500 
L 1906 2253 
L 2834 3500 
L 3513 3500 
z
" transform="scale(0.015625)"/>
      <path id="DejaVuSans-48" d="M 3597 1894 
L 3597 1613 
L 953 1613 
Q 991 1019 1311 708 
Q 1631 397 2203 397 
Q 2534 397 2845 478 
Q 3156 559 3463 722 
L 3463 178 
Q 3153 47 2828 -22 
Q 2503 -91 2169 -91 
Q 1331 -91 842 396 
Q 353 884 353 1716 
Q 353 2575 817 3079 
Q 1281 3584 2069 3584 
Q 2775 3584 3186 3129 
Q 3597 2675 3597 1894 
z
M 3022 2063 
Q 3016 2534 2758 2815 
Q 2500 3097 2075 3097 
Q 1594 3097 1305 2825 
Q 1016 2553 972 2059 
L 3022 2063 
z
" transform="scale(0.015625)"/>
      <path id="DejaVuSans-f" d="M 750 794 
L 1409 794 
L 1409 256 
L 897 -744 
L 494 -744 
L 750 256 
L 750 794 
z
" transform="scale(0.015625)"/>
      <path id="DejaVuSans-20" d="M 678 2906 
L 4684 2906 
L 4684 2381 
L 678 2381 
L 678 2906 
z
M 678 1631 
L 4684 1631 
L 4684 1100 
L 678 1100 
L 678 1631 
z
" transform="scale(0.015625)"/>
      <path id="DejaVuSans-c" d="M 513 4856 
L 1013 4856 
Q 1481 4119 1714 3412 
Q 1947 2706 1947 2009 
Q 1947 1309 1714 600 
Q 1481 -109 1013 -844 
L 513 -844 
Q 928 -128 1133 580 
Q 1338 1288 1338 2009 
Q 1338 2731 1133 3434 
Q 928 4138 513 4856 
z
" transform="scale(0.015625)"/>
     </defs>
     <use xlink:href="#DejaVuSans-25"/>
     <use xlink:href="#DejaVuSans-4c" transform="translate(68.609375 0)"/>
     <use xlink:href="#DejaVuSans-51" transform="translate(96.390625 0)"/>
     <use xlink:href="#DejaVuSans-52" transform="translate(159.765625 0)"/>
     <use xlink:href="#DejaVuSans-50" transform="translate(220.953125 0)"/>
     <use xlink:href="#DejaVuSans-4c" transform="translate(318.359375 0)"/>
     <use xlink:href="#DejaVuSans-44" transform="translate(346.140625 0)"/>
     <use xlink:href="#DejaVuSans-4f" transform="translate(407.421875 0)"/>
     <use xlink:href="#DejaVuSans-3" transform="translate(435.203125 0)"/>
     <use xlink:href="#DejaVuSans-47" transform="translate(466.984375 0)"/>
     <use xlink:href="#DejaVuSans-4c" transform="translate(530.46875 0)"/>
     <use xlink:href="#DejaVuSans-56" transform="translate(558.25 0)"/>
     <use xlink:href="#DejaVuSans-57" transform="translate(610.34375 0)"/>
     <use xlink:href="#DejaVuSans-55" transform="translate(649.546875 0)"/>
     <use xlink:href="#DejaVuSans-4c" transform="translate(690.65625 0)"/>
     <use xlink:href="#DejaVuSans-45" transform="translate(718.4375 0)"/>
     <use xlink:href="#DejaVuSans-58" transform="translate(781.921875 0)"/>
     <use xlink:href="#DejaVuSans-57" transform="translate(845.296875 0)"/>
     <use xlink:href="#DejaVuSans-4c" transform="translate(884.5 0)"/>
     <use xlink:href="#DejaVuSans-52" transform="translate(912.28125 0)"/>
     <use xlink:href="#DejaVuSans-51" transform="translate(973.46875 0)"/>
     <use xlink:href="#DejaVuSans-3" transform="translate(1036.84375 0)"/>
     <use xlink:href="#DejaVuSans-b" transform="translate(1068.625 0)"/>
     <use xlink:href="#DejaVuSans-13af" transform="translate(1107.640625 0)"/>
     <use xlink:href="#DejaVuSans-5b" transform="translate(1170.625 0)"/>
     <use xlink:href="#DejaVuSans-48" transform="translate(1226.734375 0)"/>
     <use xlink:href="#DejaVuSans-47" transform="translate(1288.265625 0)"/>
     <use xlink:href="#DejaVuSans-3" transform="translate(1351.75 0)"/>
     <use xlink:href="#DejaVuSans-57" transform="translate(1383.53125 0)"/>
     <use xlink:href="#DejaVuSans-55" transform="translate(1422.734375 0)"/>
     <use xlink:href="#DejaVuSans-4c" transform="translate(1463.84375 0)"/>
     <use xlink:href="#DejaVuSans-44" transform="translate(1491.625 0)"/>
     <use xlink:href="#DejaVuSans-4f" transform="translate(1552.90625 0)"/>
     <use xlink:href="#DejaVuSans-56" transform="translate(1580.6875 0)"/>
     <use xlink:href="#DejaVuSans-f" transform="translate(1632.78125 0)"/>
     <use xlink:href="#DejaVuSans-3" transform="translate(1664.5625 0)"/>
     <use xlink:href="#DejaVuSans-51" transform="translate(1696.34375 0)"/>
     <use xlink:href="#DejaVuSans-20" transform="translate(1759.71875 0)"/>
     <use xlink:href="#DejaVuSans-14" transform="translate(1843.515625 0)"/>
     <use xlink:href="#DejaVuSans-15" transform="translate(1907.140625 0)"/>
     <use xlink:href="#DejaVuSans-c" transform="translate(1970.765625 0)"/>
    </g>
   </g>
   <g id="legend_1">
    <g id="patch_5">
     <path d="M 283.39976 79.40024 
L 349.99976 79.40024 
Q 351.99976 79.40024 351.99976 77.40024 
L 351.99976 33.397896 
Q 351.99976 31.397896 349.99976 31.397896 
L 283.39976 31.397896 
Q 281.39976 31.397896 281.39976 33.397896 
L 281.39976 77.40024 
Q 281.39976 79.40024 283.39976 79.40024 
z
" style="fill: #ffffff; opacity: 0.88; stroke: #bdbdbd; stroke-linejoin: miter"/>
    </g>
    <g id="line2d_42">
     <g>
      <use xlink:href="#m22516f46b5" x="295.39976" y="39.496334" style="fill: #e41a1c; stroke: #e41a1c"/>
     </g>
    </g>
    <g id="text_23">
     <!-- $p=0.2$ -->
     <g transform="translate(313.39976 42.996334) scale(0.1 -0.1)">
      <defs>
       <path id="DejaVuSans-Oblique-53" d="M 3175 2156 
Q 3175 2616 2975 2859 
Q 2775 3103 2400 3103 
Q 2144 3103 1911 2972 
Q 1678 2841 1497 2591 
Q 1319 2344 1212 1994 
Q 1106 1644 1106 1300 
Q 1106 863 1306 627 
Q 1506 391 1875 391 
Q 2147 391 2380 519 
Q 2613 647 2778 891 
Q 2956 1147 3065 1494 
Q 3175 1841 3175 2156 
z
M 1394 2969 
Q 1625 3272 1939 3428 
Q 2253 3584 2638 3584 
Q 3175 3584 3472 3232 
Q 3769 2881 3769 2247 
Q 3769 1728 3584 1258 
Q 3400 788 3053 416 
Q 2822 169 2531 39 
Q 2241 -91 1919 -91 
Q 1547 -91 1294 64 
Q 1041 219 916 525 
L 556 -1331 
L -19 -1331 
L 922 3500 
L 1497 3500 
L 1394 2969 
z
" transform="scale(0.015625)"/>
      </defs>
      <use xlink:href="#DejaVuSans-Oblique-53" transform="translate(0 0.78125)"/>
      <use xlink:href="#DejaVuSans-20" transform="translate(82.958984 0.78125)"/>
      <use xlink:href="#DejaVuSans-13" transform="translate(186.230469 0.78125)"/>
      <use xlink:href="#DejaVuSans-11" transform="translate(249.853516 0.78125)"/>
      <use xlink:href="#DejaVuSans-15" transform="translate(281.640625 0.78125)"/>
     </g>
    </g>
    <g id="line2d_43">
     <g>
      <use xlink:href="#m2423ecdba6" x="295.39976" y="54.497115" style="fill: #ff9800; stroke: #ff9800"/>
     </g>
    </g>
    <g id="text_24">
     <!-- $p=0.5$ -->
     <g transform="translate(313.39976 57.997115) scale(0.1 -0.1)">
      <use xlink:href="#DejaVuSans-Oblique-53" transform="translate(0 0.78125)"/>
      <use xlink:href="#DejaVuSans-20" transform="translate(82.958984 0.78125)"/>
      <use xlink:href="#DejaVuSans-13" transform="translate(186.230469 0.78125)"/>
      <use xlink:href="#DejaVuSans-11" transform="translate(249.853516 0.78125)"/>
      <use xlink:href="#DejaVuSans-18" transform="translate(281.640625 0.78125)"/>
     </g>
    </g>
    <g id="line2d_44">
     <g>
      <use xlink:href="#m154e8d73b0" x="295.39976" y="69.497896" style="fill: #00c853; stroke: #00c853"/>
     </g>
    </g>
    <g id="text_25">
     <!-- $p=0.8$ -->
     <g transform="translate(313.39976 72.997896) scale(0.1 -0.1)">
      <use xlink:href="#DejaVuSans-Oblique-53" transform="translate(0 0.78125)"/>
      <use xlink:href="#DejaVuSans-20" transform="translate(82.958984 0.78125)"/>
      <use xlink:href="#DejaVuSans-13" transform="translate(186.230469 0.78125)"/>
      <use xlink:href="#DejaVuSans-11" transform="translate(249.853516 0.78125)"/>
      <use xlink:href="#DejaVuSans-1b" transform="translate(281.640625 0.78125)"/>
     </g>
    </g>
   </g>
  </g>
 </g>
 <defs>
  <clipPath id="p14ae0f7545">
   <rect x="46.266646" y="26.397896" width="310.733114" height="227.601864"/>
  </clipPath>
 </defs>
</svg>
