<?xml version="1.0" encoding="utf-8" standalone="no"?>
<!DOCTYPE svg PUBLIC "-//W3C//DTD SVG 1.1//EN"
  "http://www.w3.org/Graphics/SVG/1.1/DTD/svg11.dtd">
<svg xmlns:xlink="http://www.w3.org/1999/xlink" width="360pt" height="288pt" viewBox="0 0 360 288" xmlns="http://www.w3.org/2000/svg" version="1.1">
 <metadata>
  <rdf:RDF xmlns:dc="http://purl.org/dc/elements/1.1/" xmlns:cc="http://creativecommons.org/ns#" xmlns:rdf="http://www.w3.org/1999/02/22-rdf-syntax-ns#">
   <cc:Work>
    <dc:type rdf:resource="http://purl.org/dc/dcmitype/StillImage"/>
    <dc:date>2026-07-20T13:05:10.635368</dc:date>
    <dc:format>image/svg+xml</dc:format>
    <dc:creator>
     <cc:Agent>
      <dc:title>Matplotlib v3.11.0, https://matplotlib.org/</dc:title>
     </cc:Agent>
    </dc:creator>
   </cc:Work>
  </rdf:RDF>
 </metadata>
 <defs>
  <style type="text/css">*{stroke-linejoin: round; stroke-linecap: butt}</style>
 </defs>
 <g id="figure_1">
  <g id="patch_1">
   <path d="M 0 288 
L 360 288 
L 360 0 
L 0 0 
z
" style="fill: #f7f7f7"/>
  </g>
  <g id="axes_1">
   <g id="patch_2">
    <path d="M 39.904146 253.99976 
L 353.81851 253.99976 
L 353.81851 26.397896 
L 39.904146 26.397896 
z
" style="fill: #ffffff"/>
   </g>
   <g id="matplotlib.axis_1">
    <g id="xtick_1">
     <g id="line2d_1">
      <path d="M 39.904146 253.99976 
L 39.904146 26.397896 
" clip-path="url(#pef93c8c2fc)" style="fill: none; stroke-dasharray: 2.59,1.12; stroke-dashoffset: 0; stroke: #9e9e9e; stroke-opacity: 0.45; stroke-width: 0.7"/>
     </g>
     <g id="line2d_2">
      <defs>
       <path id="mc7af3d0cf9" d="M 0 0 
L 0 3.5 
" style="stroke: #000000; stroke-width: 0.8"/>
      </defs>
      <g>
       <use xlink:href="#mc7af3d0cf9" x="39.904146" y="253.99976" style="stroke: #000000; stroke-width: 0.8"/>
      </g>
     </g>
     <g id="text_1">
      <!-- −6 -->
      <g transform="translate(32.533053 268.597416) scale(0.1 -0.1)">
       <defs>
        <path id="DejaVuSans-c9c" d="M 678 2272 
L 4684 2272 
L 4684 1741 
L 678 1741 
L 678 2272 
z
" transform="scale(0.015625)"/>
        <path id="DejaVuSans-19" d="M 2113 2584 
Q 1688 2584 1439 2293 
Q 1191 2003 1191 1497 
Q 1191 994 1439 701 
Q 1688 409 2113 409 
Q 2538 409 2786 701 
Q 3034 994 3034 1497 
Q 3034 2003 2786 2293 
Q 2538 2584 2113 2584 
z
M 3366 4563 
L 3366 3988 
Q 3128 4100 2886 4159 
Q 2644 4219 2406 4219 
Q 1781 4219 1451 3797 
Q 1122 3375 1075 2522 
Q 1259 2794 1537 2939 
Q 1816 3084 2150 3084 
Q 2853 3084 3261 2657 
Q 3669 2231 3669 1497 
Q 3669 778 3244 343 
Q 2819 -91 2113 -91 
Q 1303 -91 875 529 
Q 447 1150 447 2328 
Q 447 3434 972 4092 
Q 1497 4750 2381 4750 
Q 2619 4750 2861 4703 
Q 3103 4656 3366 4563 
z
" transform="scale(0.015625)"/>
       </defs>
       <use xlink:href="#DejaVuSans-c9c"/>
       <use xlink:href="#DejaVuSans-19" transform="translate(83.796875 0)"/>
      </g>
     </g>
    </g>
    <g id="xtick_2">
     <g id="line2d_3">
      <path d="M 92.223207 253.99976 
L 92.223207 26.397896 
" clip-path="url(#pef93c8c2fc)" style="fill: none; stroke-dasharray: 2.59,1.12; stroke-dashoffset: 0; stroke: #9e9e9e; stroke-opacity: 0.45; stroke-width: 0.7"/>
     </g>
     <g id="line2d_4">
      <g>
       <use xlink:href="#mc7af3d0cf9" x="92.223207" y="253.99976" style="stroke: #000000; stroke-width: 0.8"/>
      </g>
     </g>
     <g id="text_2">
      <!-- −4 -->
      <g transform="translate(84.852113 268.597416) scale(0.1 -0.1)">
       <defs>
        <path id="DejaVuSans-17" d="M 2419 4116 
L 825 1625 
L 2419 1625 
L 2419 4116 
z
M 2253 4666 
L 3047 4666 
L 3047 1625 
L 3713 1625 
L 3713 1100 
L 3047 1100 
L 3047 0 
L 2419 0 
L 2419 1100 
L 313 1100 
L 313 1709 
L 2253 4666 
z
" transform="scale(0.015625)"/>
       </defs>
       <use xlink:href="#DejaVuSans-c9c"/>
       <use xlink:href="#DejaVuSans-17" transform="translate(83.796875 0)"/>
      </g>
     </g>
    </g>
    <g id="xtick_3">
     <g id="line2d_5">
      <path d="M 144.542268 253.99976 
L 144.542268 26.397896 
" clip-path="url(#pef93c8c2fc)" style="fill: none; stroke-dasharray: 2.59,1.12; stroke-dashoffset: 0; stroke: #9e9e9e; stroke-opacity: 0.45; stroke-width: 0.7"/>
     </g>
     <g id="line2d_6">
      <g>
       <use xlink:href="#mc7af3d0cf9" x="144.542268" y="253.99976" style="stroke: #000000; stroke-width: 0.8"/>
      </g>
     </g>
     <g id="text_3">
      <!-- −2 -->
      <g transform="translate(137.171174 268.597416) scale(0.1 -0.1)">
       <defs>
        <path id="DejaVuSans-15" d="M 1228 531 
L 3431 531 
L 3431 0 
L 469 0 
L 469 531 
Q 828 903 1448 1529 
Q 2069 2156 2228 2338 
Q 2531 2678 2651 2914 
Q 2772 3150 2772 3378 
Q 2772 3750 2511 3984 
Q 2250 4219 1831 4219 
Q 1534 4219 1204 4116 
Q 875 4013 500 3803 
L 500 4441 
Q 881 4594 1212 4672 
Q 1544 4750 1819 4750 
Q 2544 4750 2975 4387 
Q 3406 4025 3406 3419 
Q 3406 3131 3298 2873 
Q 3191 2616 2906 2266 
Q 2828 2175 2409 1742 
Q 1991 1309 1228 531 
z
" transform="scale(0.015625)"/>
       </defs>
       <use xlink:href="#DejaVuSans-c9c"/>
       <use xlink:href="#DejaVuSans-15" transform="translate(83.796875 0)"/>
      </g>
     </g>
    </g>
    <g id="xtick_4">
     <g id="line2d_7">
      <path d="M 196.861328 253.99976 
L 196.861328 26.397896 
" clip-path="url(#pef93c8c2fc)" style="fill: none; stroke-dasharray: 2.59,1.12; stroke-dashoffset: 0; stroke: #9e9e9e; stroke-opacity: 0.45; stroke-width: 0.7"/>
     </g>
     <g id="line2d_8">
      <g>
       <use xlink:href="#mc7af3d0cf9" x="196.861328" y="253.99976" style="stroke: #000000; stroke-width: 0.8"/>
      </g>
     </g>
     <g id="text_4">
      <!-- 0 -->
      <g transform="translate(193.680078 268.597416) scale(0.1 -0.1)">
       <defs>
        <path id="DejaVuSans-13" d="M 2034 4250 
Q 1547 4250 1301 3770 
Q 1056 3291 1056 2328 
Q 1056 1369 1301 889 
Q 1547 409 2034 409 
Q 2525 409 2770 889 
Q 3016 1369 3016 2328 
Q 3016 3291 2770 3770 
Q 2525 4250 2034 4250 
z
M 2034 4750 
Q 2819 4750 3233 4129 
Q 3647 3509 3647 2328 
Q 3647 1150 3233 529 
Q 2819 -91 2034 -91 
Q 1250 -91 836 529 
Q 422 1150 422 2328 
Q 422 3509 836 4129 
Q 1250 4750 2034 4750 
z
" transform="scale(0.015625)"/>
       </defs>
       <use xlink:href="#DejaVuSans-13"/>
      </g>
     </g>
    </g>
    <g id="xtick_5">
     <g id="line2d_9">
      <path d="M 249.180389 253.99976 
L 249.180389 26.397896 
" clip-path="url(#pef93c8c2fc)" style="fill: none; stroke-dasharray: 2.59,1.12; stroke-dashoffset: 0; stroke: #9e9e9e; stroke-opacity: 0.45; stroke-width: 0.7"/>
     </g>
     <g id="line2d_10">
      <g>
       <use xlink:href="#mc7af3d0cf9" x="249.180389" y="253.99976" style="stroke: #000000; stroke-width: 0.8"/>
      </g>
     </g>
     <g id="text_5">
      <!-- 2 -->
      <g transform="translate(245.999139 268.597416) scale(0.1 -0.1)">
       <use xlink:href="#DejaVuSans-15"/>
      </g>
     </g>
    </g>
    <g id="xtick_6">
     <g id="line2d_11">
      <path d="M 301.499449 253.99976 
L 301.499449 26.397896 
" clip-path="url(#pef93c8c2fc)" style="fill: none; stroke-dasharray: 2.59,1.12; stroke-dashoffset: 0; stroke: #9e9e9e; stroke-opacity: 0.45; stroke-width: 0.7"/>
     </g>
     <g id="line2d_12">
      <g>
       <use xlink:href="#mc7af3d0cf9" x="301.499449" y="253.99976" style="stroke: #000000; stroke-width: 0.8"/>
      </g>
     </g>
     <g id="text_6">
      <!-- 4 -->
      <g transform="translate(298.318199 268.597416) scale(0.1 -0.1)">
       <use xlink:href="#DejaVuSans-17"/>
      </g>
     </g>
    </g>
    <g id="xtick_7">
     <g id="line2d_13">
      <path d="M 353.81851 253.99976 
L 353.81851 26.397896 
" clip-path="url(#pef93c8c2fc)" style="fill: none; stroke-dasharray: 2.59,1.12; stroke-dashoffset: 0; stroke: #9e9e9e; stroke-opacity: 0.45; stroke-width: 0.7"/>
     </g>
     <g id="line2d_14">
      <g>
       <use xlink:href="#mc7af3d0cf9" x="353.81851" y="253.99976" style="stroke: #000000; stroke-width: 0.8"/>
      </g>
     </g>
     <g id="text_7">
      <!-- 6 -->
      <g transform="translate(350.63726 268.597416) scale(0.1 -0.1)">
       <use xlink:href="#DejaVuSans-19"/>
      </g>
     </g>
    </g>
    <g id="text_8">
     <!-- y -->
     <g transform="translate(193.901953 282.597416) scale(0.1 -0.1)">
      <defs>
       <path id="DejaVuSans-5c" d="M 2059 -325 
Q 1816 -950 1584 -1140 
Q 1353 -1331 966 -1331 
L 506 -1331 
L 506 -850 
L 844 -850 
Q 1081 -850 1212 -737 
Q 1344 -625 1503 -206 
L 1606 56 
L 191 3500 
L 800 3500 
L 1894 763 
L 2988 3500 
L 3597 3500 
L 2059 -325 
z
" transform="scale(0.015625)"/>
      </defs>
      <use xlink:href="#DejaVuSans-5c"/>
     </g>
    </g>
   </g>
   <g id="matplotlib.axis_2">
    <g id="ytick_1">
     <g id="line2d_15">
      <path d="M 39.904146 243.658538 
L 353.81851 243.658538 
" clip-path="url(#pef93c8c2fc)" style="fill: none; stroke-dasharray: 2.59,1.12; stroke-dashoffset: 0; stroke: #9e9e9e; stroke-opacity: 0.45; stroke-width: 0.7"/>
     </g>
     <g id="line2d_16">
      <defs>
       <path id="m9f7efde511" d="M 0 0 
L -3.5 0 
" style="stroke: #000000; stroke-width: 0.8"/>
      </defs>
      <g>
       <use xlink:href="#m9f7efde511" x="39.904146" y="243.658538" style="stroke: #000000; stroke-width: 0.8"/>
      </g>
     </g>
     <g id="text_9">
      <!-- 0.0 -->
      <g transform="translate(17.001021 247.457366) scale(0.1 -0.1)">
       <defs>
        <path id="DejaVuSans-11" d="M 684 794 
L 1344 794 
L 1344 0 
L 684 0 
L 684 794 
z
" transform="scale(0.015625)"/>
       </defs>
       <use xlink:href="#DejaVuSans-13"/>
       <use xlink:href="#DejaVuSans-11" transform="translate(63.625 0)"/>
       <use xlink:href="#DejaVuSans-13" transform="translate(95.40625 0)"/>
      </g>
     </g>
    </g>
    <g id="ytick_2">
     <g id="line2d_17">
      <path d="M 39.904146 213.14822 
L 353.81851 213.14822 
" clip-path="url(#pef93c8c2fc)" style="fill: none; stroke-dasharray: 2.59,1.12; stroke-dashoffset: 0; stroke: #9e9e9e; stroke-opacity: 0.45; stroke-width: 0.7"/>
     </g>
     <g id="line2d_18">
      <g>
       <use xlink:href="#m9f7efde511" x="39.904146" y="213.14822" style="stroke: #000000; stroke-width: 0.8"/>
      </g>
     </g>
     <g id="text_10">
      <!-- 0.1 -->
      <g transform="translate(17.001021 216.947048) scale(0.1 -0.1)">
       <defs>
        <path id="DejaVuSans-14" d="M 794 531 
L 1825 531 
L 1825 4091 
L 703 3866 
L 703 4441 
L 1819 4666 
L 2450 4666 
L 2450 531 
L 3481 531 
L 3481 0 
L 794 0 
L 794 531 
z
" transform="scale(0.015625)"/>
       </defs>
       <use xlink:href="#DejaVuSans-13"/>
       <use xlink:href="#DejaVuSans-11" transform="translate(63.625 0)"/>
       <use xlink:href="#DejaVuSans-14" transform="translate(95.40625 0)"/>
      </g>
     </g>
    </g>
    <g id="ytick_3">
     <g id="line2d_19">
      <path d="M 39.904146 182.637902 
L 353.81851 182.637902 
" clip-path="url(#pef93c8c2fc)" style="fill: none; stroke-dasharray: 2.59,1.12; stroke-dashoffset: 0; stroke: #9e9e9e; stroke-opacity: 0.45; stroke-width: 0.7"/>
     </g>
     <g id="line2d_20">
      <g>
       <use xlink:href="#m9f7efde511" x="39.904146" y="182.637902" style="stroke: #000000; stroke-width: 0.8"/>
      </g>
     </g>
     <g id="text_11">
      <!-- 0.2 -->
      <g transform="translate(17.001021 186.43673) scale(0.1 -0.1)">
       <use xlink:href="#DejaVuSans-13"/>
       <use xlink:href="#DejaVuSans-11" transform="translate(63.625 0)"/>
       <use xlink:href="#DejaVuSans-15" transform="translate(95.40625 0)"/>
      </g>
     </g>
    </g>
    <g id="ytick_4">
     <g id="line2d_21">
      <path d="M 39.904146 152.127584 
L 353.81851 152.127584 
" clip-path="url(#pef93c8c2fc)" style="fill: none; stroke-dasharray: 2.59,1.12; stroke-dashoffset: 0; stroke: #9e9e9e; stroke-opacity: 0.45; stroke-width: 0.7"/>
     </g>
     <g id="line2d_22">
      <g>
       <use xlink:href="#m9f7efde511" x="39.904146" y="152.127584" style="stroke: #000000; stroke-width: 0.8"/>
      </g>
     </g>
     <g id="text_12">
      <!-- 0.3 -->
      <g transform="translate(17.001021 155.926412) scale(0.1 -0.1)">
       <defs>
        <path id="DejaVuSans-16" d="M 2597 2516 
Q 3050 2419 3304 2112 
Q 3559 1806 3559 1356 
Q 3559 666 3084 287 
Q 2609 -91 1734 -91 
Q 1441 -91 1130 -33 
Q 819 25 488 141 
L 488 750 
Q 750 597 1062 519 
Q 1375 441 1716 441 
Q 2309 441 2620 675 
Q 2931 909 2931 1356 
Q 2931 1769 2642 2001 
Q 2353 2234 1838 2234 
L 1294 2234 
L 1294 2753 
L 1863 2753 
Q 2328 2753 2575 2939 
Q 2822 3125 2822 3475 
Q 2822 3834 2567 4026 
Q 2313 4219 1838 4219 
Q 1578 4219 1281 4162 
Q 984 4106 628 3988 
L 628 4550 
Q 988 4650 1302 4700 
Q 1616 4750 1894 4750 
Q 2613 4750 3031 4423 
Q 3450 4097 3450 3541 
Q 3450 3153 3228 2886 
Q 3006 2619 2597 2516 
z
" transform="scale(0.015625)"/>
       </defs>
       <use xlink:href="#DejaVuSans-13"/>
       <use xlink:href="#DejaVuSans-11" transform="translate(63.625 0)"/>
       <use xlink:href="#DejaVuSans-16" transform="translate(95.40625 0)"/>
      </g>
     </g>
    </g>
    <g id="ytick_5">
     <g id="line2d_23">
      <path d="M 39.904146 121.617265 
L 353.81851 121.617265 
" clip-path="url(#pef93c8c2fc)" style="fill: none; stroke-dasharray: 2.59,1.12; stroke-dashoffset: 0; stroke: #9e9e9e; stroke-opacity: 0.45; stroke-width: 0.7"/>
     </g>
     <g id="line2d_24">
      <g>
       <use xlink:href="#m9f7efde511" x="39.904146" y="121.617265" style="stroke: #000000; stroke-width: 0.8"/>
      </g>
     </g>
     <g id="text_13">
      <!-- 0.4 -->
      <g transform="translate(17.001021 125.416094) scale(0.1 -0.1)">
       <use xlink:href="#DejaVuSans-13"/>
       <use xlink:href="#DejaVuSans-11" transform="translate(63.625 0)"/>
       <use xlink:href="#DejaVuSans-17" transform="translate(95.40625 0)"/>
      </g>
     </g>
    </g>
    <g id="ytick_6">
     <g id="line2d_25">
      <path d="M 39.904146 91.106947 
L 353.81851 91.106947 
" clip-path="url(#pef93c8c2fc)" style="fill: none; stroke-dasharray: 2.59,1.12; stroke-dashoffset: 0; stroke: #9e9e9e; stroke-opacity: 0.45; stroke-width: 0.7"/>
     </g>
     <g id="line2d_26">
      <g>
       <use xlink:href="#m9f7efde511" x="39.904146" y="91.106947" style="stroke: #000000; stroke-width: 0.8"/>
      </g>
     </g>
     <g id="text_14">
      <!-- 0.5 -->
      <g transform="translate(17.001021 94.905775) scale(0.1 -0.1)">
       <defs>
        <path id="DejaVuSans-18" d="M 691 4666 
L 3169 4666 
L 3169 4134 
L 1269 4134 
L 1269 2991 
Q 1406 3038 1543 3061 
Q 1681 3084 1819 3084 
Q 2600 3084 3056 2656 
Q 3513 2228 3513 1497 
Q 3513 744 3044 326 
Q 2575 -91 1722 -91 
Q 1428 -91 1123 -41 
Q 819 9 494 109 
L 494 744 
Q 775 591 1075 516 
Q 1375 441 1709 441 
Q 2250 441 2565 725 
Q 2881 1009 2881 1497 
Q 2881 1984 2565 2268 
Q 2250 2553 1709 2553 
Q 1456 2553 1204 2497 
Q 953 2441 691 2322 
L 691 4666 
z
" transform="scale(0.015625)"/>
       </defs>
       <use xlink:href="#DejaVuSans-13"/>
       <use xlink:href="#DejaVuSans-11" transform="translate(63.625 0)"/>
       <use xlink:href="#DejaVuSans-18" transform="translate(95.40625 0)"/>
      </g>
     </g>
    </g>
    <g id="ytick_7">
     <g id="line2d_27">
      <path d="M 39.904146 60.596629 
L 353.81851 60.596629 
" clip-path="url(#pef93c8c2fc)" style="fill: none; stroke-dasharray: 2.59,1.12; stroke-dashoffset: 0; stroke: #9e9e9e; stroke-opacity: 0.45; stroke-width: 0.7"/>
     </g>
     <g id="line2d_28">
      <g>
       <use xlink:href="#m9f7efde511" x="39.904146" y="60.596629" style="stroke: #000000; stroke-width: 0.8"/>
      </g>
     </g>
     <g id="text_15">
      <!-- 0.6 -->
      <g transform="translate(17.001021 64.395457) scale(0.1 -0.1)">
       <use xlink:href="#DejaVuSans-13"/>
       <use xlink:href="#DejaVuSans-11" transform="translate(63.625 0)"/>
       <use xlink:href="#DejaVuSans-19" transform="translate(95.40625 0)"/>
      </g>
     </g>
    </g>
    <g id="ytick_8">
     <g id="line2d_29">
      <path d="M 39.904146 30.086311 
L 353.81851 30.086311 
" clip-path="url(#pef93c8c2fc)" style="fill: none; stroke-dasharray: 2.59,1.12; stroke-dashoffset: 0; stroke: #9e9e9e; stroke-opacity: 0.45; stroke-width: 0.7"/>
     </g>
     <g id="line2d_30">
      <g>
       <use xlink:href="#m9f7efde511" x="39.904146" y="30.086311" style="stroke: #000000; stroke-width: 0.8"/>
      </g>
     </g>
     <g id="text_16">
      <!-- 0.7 -->
      <g transform="translate(17.001021 33.885139) scale(0.1 -0.1)">
       <defs>
        <path id="DejaVuSans-1a" d="M 525 4666 
L 3525 4666 
L 3525 4397 
L 1831 0 
L 1172 0 
L 2766 4134 
L 525 4134 
L 525 4666 
z
" transform="scale(0.015625)"/>
       </defs>
       <use xlink:href="#DejaVuSans-13"/>
       <use xlink:href="#DejaVuSans-11" transform="translate(63.625 0)"/>
       <use xlink:href="#DejaVuSans-1a" transform="translate(95.40625 0)"/>
      </g>
     </g>
    </g>
    <g id="text_17">
     <!-- probability density -->
     <g transform="translate(10.598677 186.798828) rotate(-90) scale(0.1 -0.1)">
      <defs>
       <path id="DejaVuSans-53" d="M 1159 525 
L 1159 -1331 
L 581 -1331 
L 581 3500 
L 1159 3500 
L 1159 2969 
Q 1341 3281 1617 3432 
Q 1894 3584 2278 3584 
Q 2916 3584 3314 3078 
Q 3713 2572 3713 1747 
Q 3713 922 3314 415 
Q 2916 -91 2278 -91 
Q 1894 -91 1617 61 
Q 1341 213 1159 525 
z
M 3116 1747 
Q 3116 2381 2855 2742 
Q 2594 3103 2138 3103 
Q 1681 3103 1420 2742 
Q 1159 2381 1159 1747 
Q 1159 1113 1420 752 
Q 1681 391 2138 391 
Q 2594 391 2855 752 
Q 3116 1113 3116 1747 
z
" transform="scale(0.015625)"/>
       <path id="DejaVuSans-55" d="M 2631 2963 
Q 2534 3019 2420 3045 
Q 2306 3072 2169 3072 
Q 1681 3072 1420 2755 
Q 1159 2438 1159 1844 
L 1159 0 
L 581 0 
L 581 3500 
L 1159 3500 
L 1159 2956 
Q 1341 3275 1631 3429 
Q 1922 3584 2338 3584 
Q 2397 3584 2469 3576 
Q 2541 3569 2628 3553 
L 2631 2963 
z
" transform="scale(0.015625)"/>
       <path id="DejaVuSans-52" d="M 1959 3097 
Q 1497 3097 1228 2736 
Q 959 2375 959 1747 
Q 959 1119 1226 758 
Q 1494 397 1959 397 
Q 2419 397 2687 759 
Q 2956 1122 2956 1747 
Q 2956 2369 2687 2733 
Q 2419 3097 1959 3097 
z
M 1959 3584 
Q 2709 3584 3137 3096 
Q 3566 2609 3566 1747 
Q 3566 888 3137 398 
Q 2709 -91 1959 -91 
Q 1206 -91 779 398 
Q 353 888 353 1747 
Q 353 2609 779 3096 
Q 1206 3584 1959 3584 
z
" transform="scale(0.015625)"/>
       <path id="DejaVuSans-45" d="M 3116 1747 
Q 3116 2381 2855 2742 
Q 2594 3103 2138 3103 
Q 1681 3103 1420 2742 
Q 1159 2381 1159 1747 
Q 1159 1113 1420 752 
Q 1681 391 2138 391 
Q 2594 391 2855 752 
Q 3116 1113 3116 1747 
z
M 1159 2969 
Q 1341 3281 1617 3432 
Q 1894 3584 2278 3584 
Q 2916 3584 3314 3078 
Q 3713 2572 3713 1747 
Q 3713 922 3314 415 
Q 2916 -91 2278 -91 
Q 1894 -91 1617 61 
Q 1341 213 1159 525 
L 1159 0 
L 581 0 
L 581 4863 
L 1159 4863 
L 1159 2969 
z
" transform="scale(0.015625)"/>
       <path id="DejaVuSans-44" d="M 2194 1759 
Q 1497 1759 1228 1600 
Q 959 1441 959 1056 
Q 959 750 1161 570 
Q 1363 391 1709 391 
Q 2188 391 2477 730 
Q 2766 1069 2766 1631 
L 2766 1759 
L 2194 1759 
z
M 3341 1997 
L 3341 0 
L 2766 0 
L 2766 531 
Q 2569 213 2275 61 
Q 1981 -91 1556 -91 
Q 1019 -91 701 211 
Q 384 513 384 1019 
Q 384 1609 779 1909 
Q 1175 2209 1959 2209 
L 2766 2209 
L 2766 2266 
Q 2766 2663 2505 2880 
Q 2244 3097 1772 3097 
Q 1472 3097 1187 3025 
Q 903 2953 641 2809 
L 641 3341 
Q 956 3463 1253 3523 
Q 1550 3584 1831 3584 
Q 2591 3584 2966 3190 
Q 3341 2797 3341 1997 
z
" transform="scale(0.015625)"/>
       <path id="DejaVuSans-4c" d="M 603 3500 
L 1178 3500 
L 1178 0 
L 603 0 
L 603 3500 
z
M 603 4863 
L 1178 4863 
L 1178 4134 
L 603 4134 
L 603 4863 
z
" transform="scale(0.015625)"/>
       <path id="DejaVuSans-4f" d="M 603 4863 
L 1178 4863 
L 1178 0 
L 603 0 
L 603 4863 
z
" transform="scale(0.015625)"/>
       <path id="DejaVuSans-57" d="M 1172 4494 
L 1172 3500 
L 2356 3500 
L 2356 3053 
L 1172 3053 
L 1172 1153 
Q 1172 725 1289 603 
Q 1406 481 1766 481 
L 2356 481 
L 2356 0 
L 1766 0 
Q 1100 0 847 248 
Q 594 497 594 1153 
L 594 3053 
L 172 3053 
L 172 3500 
L 594 3500 
L 594 4494 
L 1172 4494 
z
" transform="scale(0.015625)"/>
       <path id="DejaVuSans-3" transform="scale(0.015625)"/>
       <path id="DejaVuSans-47" d="M 2906 2969 
L 2906 4863 
L 3481 4863 
L 3481 0 
L 2906 0 
L 2906 525 
Q 2725 213 2448 61 
Q 2172 -91 1784 -91 
Q 1150 -91 751 415 
Q 353 922 353 1747 
Q 353 2572 751 3078 
Q 1150 3584 1784 3584 
Q 2172 3584 2448 3432 
Q 2725 3281 2906 2969 
z
M 947 1747 
Q 947 1113 1208 752 
Q 1469 391 1925 391 
Q 2381 391 2643 752 
Q 2906 1113 2906 1747 
Q 2906 2381 2643 2742 
Q 2381 3103 1925 3103 
Q 1469 3103 1208 2742 
Q 947 2381 947 1747 
z
" transform="scale(0.015625)"/>
       <path id="DejaVuSans-48" d="M 3597 1894 
L 3597 1613 
L 953 1613 
Q 991 1019 1311 708 
Q 1631 397 2203 397 
Q 2534 397 2845 478 
Q 3156 559 3463 722 
L 3463 178 
Q 3153 47 2828 -22 
Q 2503 -91 2169 -91 
Q 1331 -91 842 396 
Q 353 884 353 1716 
Q 353 2575 817 3079 
Q 1281 3584 2069 3584 
Q 2775 3584 3186 3129 
Q 3597 2675 3597 1894 
z
M 3022 2063 
Q 3016 2534 2758 2815 
Q 2500 3097 2075 3097 
Q 1594 3097 1305 2825 
Q 1016 2553 972 2059 
L 3022 2063 
z
" transform="scale(0.015625)"/>
       <path id="DejaVuSans-51" d="M 3513 2113 
L 3513 0 
L 2938 0 
L 2938 2094 
Q 2938 2591 2744 2837 
Q 2550 3084 2163 3084 
Q 1697 3084 1428 2787 
Q 1159 2491 1159 1978 
L 1159 0 
L 581 0 
L 581 3500 
L 1159 3500 
L 1159 2956 
Q 1366 3272 1645 3428 
Q 1925 3584 2291 3584 
Q 2894 3584 3203 3211 
Q 3513 2838 3513 2113 
z
" transform="scale(0.015625)"/>
       <path id="DejaVuSans-56" d="M 2834 3397 
L 2834 2853 
Q 2591 2978 2328 3040 
Q 2066 3103 1784 3103 
Q 1356 3103 1142 2972 
Q 928 2841 928 2578 
Q 928 2378 1081 2264 
Q 1234 2150 1697 2047 
L 1894 2003 
Q 2506 1872 2764 1633 
Q 3022 1394 3022 966 
Q 3022 478 2636 193 
Q 2250 -91 1575 -91 
Q 1294 -91 989 -36 
Q 684 19 347 128 
L 347 722 
Q 666 556 975 473 
Q 1284 391 1588 391 
Q 1994 391 2212 530 
Q 2431 669 2431 922 
Q 2431 1156 2273 1281 
Q 2116 1406 1581 1522 
L 1381 1569 
Q 847 1681 609 1914 
Q 372 2147 372 2553 
Q 372 3047 722 3315 
Q 1072 3584 1716 3584 
Q 2034 3584 2315 3537 
Q 2597 3491 2834 3397 
z
" transform="scale(0.015625)"/>
      </defs>
      <use xlink:href="#DejaVuSans-53"/>
      <use xlink:href="#DejaVuSans-55" transform="translate(63.484375 0)"/>
      <use xlink:href="#DejaVuSans-52" transform="translate(102.390625 0)"/>
      <use xlink:href="#DejaVuSans-45" transform="translate(163.578125 0)"/>
      <use xlink:href="#DejaVuSans-44" transform="translate(227.0625 0)"/>
      <use xlink:href="#DejaVuSans-45" transform="translate(288.34375 0)"/>
      <use xlink:href="#DejaVuSans-4c" transform="translate(351.828125 0)"/>
      <use xlink:href="#DejaVuSans-4f" transform="translate(379.609375 0)"/>
      <use xlink:href="#DejaVuSans-4c" transform="translate(407.390625 0)"/>
      <use xlink:href="#DejaVuSans-57" transform="translate(435.171875 0)"/>
      <use xlink:href="#DejaVuSans-5c" transform="translate(474.375 0)"/>
      <use xlink:href="#DejaVuSans-3" transform="translate(533.5625 0)"/>
      <use xlink:href="#DejaVuSans-47" transform="translate(565.34375 0)"/>
      <use xlink:href="#DejaVuSans-48" transform="translate(628.828125 0)"/>
      <use xlink:href="#DejaVuSans-51" transform="translate(690.359375 0)"/>
      <use xlink:href="#DejaVuSans-56" transform="translate(753.734375 0)"/>
      <use xlink:href="#DejaVuSans-4c" transform="translate(805.828125 0)"/>
      <use xlink:href="#DejaVuSans-57" transform="translate(833.609375 0)"/>
      <use xlink:href="#DejaVuSans-5c" transform="translate(872.8125 0)"/>
     </g>
    </g>
   </g>
   <g id="line2d_31">
    <path d="M 39.904146 242.761118 
L 58.542157 242.285971 
L 72.782435 241.708803 
L 84.090891 241.032736 
L 93.305189 240.264446 
L 101.053575 239.400724 
L 107.754883 238.432565 
L 113.618527 237.360953 
L 118.644507 236.226434 
L 123.251656 234.964823 
L 127.439973 233.589618 
L 131.209458 232.124755 
L 134.769528 230.502928 
L 138.120181 228.724194 
L 141.261419 226.793854 
L 144.193241 224.723466 
L 146.915647 222.531664 
L 149.638053 220.041571 
L 152.151043 217.441104 
L 154.664034 214.512133 
L 157.177024 211.213547 
L 159.480598 207.827733 
L 161.784173 204.059681 
L 164.087747 199.875091 
L 166.391322 195.242572 
L 168.694896 190.137164 
L 171.207886 184.012855 
L 173.930292 176.735183 
L 176.862114 168.223366 
L 180.841015 155.89942 
L 185.65758 141.051582 
L 187.961154 134.677511 
L 189.636481 130.617547 
L 191.102392 127.588076 
L 192.358887 125.450378 
L 193.405967 124.030203 
L 194.453046 122.963627 
L 195.290709 122.377306 
L 196.128373 122.035465 
L 196.966036 121.941929 
L 197.803699 122.097749 
L 198.641363 122.501175 
L 199.479026 123.147703 
L 200.526106 124.286628 
L 201.573185 125.774869 
L 202.82968 127.987264 
L 204.295591 131.092695 
L 205.970918 135.223269 
L 208.065076 141.051582 
L 210.996898 149.970849 
L 218.326453 172.558486 
L 221.258275 180.734802 
L 223.980681 187.655956 
L 226.493671 193.441793 
L 229.006662 198.657301 
L 231.519652 203.330804 
L 234.032642 207.501503 
L 236.545632 211.213547 
L 239.058623 214.512133 
L 241.571613 217.441104 
L 244.084603 220.041571 
L 246.807009 222.531664 
L 249.529415 224.723466 
L 252.461237 226.793854 
L 255.602475 228.724194 
L 258.743713 230.399376 
L 262.303782 232.036183 
L 266.073268 233.514286 
L 270.052169 234.83787 
L 274.449902 236.067981 
L 279.266466 237.187125 
L 284.711278 238.222648 
L 290.993754 239.180508 
L 298.113893 240.031732 
L 306.281111 240.780329 
L 316.123656 241.450081 
L 328.06036 242.027726 
L 342.928886 242.513283 
L 353.81851 242.761118 
L 353.81851 242.761118 
" clip-path="url(#pef93c8c2fc)" style="fill: none; stroke: #e41a1c; stroke-width: 2; stroke-linecap: square"/>
   </g>
   <g id="line2d_32">
    <path d="M 39.904146 239.68875 
L 51.422018 238.779457 
L 61.473979 237.769835 
L 70.269445 236.669475 
L 78.017832 235.485043 
L 85.137971 234.173258 
L 91.420446 232.796278 
L 97.28409 231.284719 
L 102.519486 229.713265 
L 107.545467 227.97042 
L 112.152616 226.135522 
L 116.340933 224.237772 
L 120.319834 222.201058 
L 124.089319 220.031001 
L 127.649389 217.737283 
L 131.209458 215.175366 
L 134.560112 212.488878 
L 137.910765 209.503906 
L 141.052003 206.404843 
L 144.193241 202.985471 
L 147.334479 199.216769 
L 150.266301 195.35967 
L 153.198123 191.154599 
L 156.339361 186.247568 
L 159.480598 180.921264 
L 162.831252 174.797644 
L 166.810153 167.022773 
L 177.280946 146.213599 
L 179.375104 142.689391 
L 181.050431 140.242804 
L 182.516342 138.448254 
L 183.772837 137.215377 
L 185.029332 136.304194 
L 186.076412 135.816633 
L 187.123491 135.596564 
L 187.961154 135.624458 
L 188.798818 135.841543 
L 189.636481 136.253568 
L 190.68356 137.048756 
L 191.73064 138.15856 
L 192.777719 139.581781 
L 194.034214 141.693843 
L 195.290709 144.22622 
L 196.75662 147.668599 
L 198.431947 152.162656 
L 200.526106 158.439324 
L 203.667343 168.67529 
L 209.112156 186.484876 
L 211.834562 194.575432 
L 214.138136 200.770357 
L 216.44171 206.319226 
L 218.535869 210.803813 
L 220.630027 214.778921 
L 222.724186 218.280597 
L 224.818345 221.351409 
L 226.912503 224.036081 
L 229.006662 226.378598 
L 231.310236 228.609584 
L 233.61381 230.527037 
L 236.126801 232.313602 
L 238.639791 233.830516 
L 241.362197 235.219136 
L 244.294019 236.46909 
L 247.644672 237.644017 
L 251.204742 238.655378 
L 255.183643 239.559287 
L 259.790792 240.37703 
L 265.235604 241.108496 
L 271.727496 241.743783 
L 279.685298 242.284775 
L 289.737259 242.730741 
L 303.139874 243.086091 
L 322.196716 243.350773 
L 352.771431 243.52956 
L 353.81851 243.533061 
L 353.81851 243.533061 
" clip-path="url(#pef93c8c2fc)" style="fill: none; stroke: #ff9800; stroke-width: 2; stroke-linecap: square"/>
   </g>
   <g id="line2d_33">
    <path d="M 39.904146 239.731785 
L 55.819751 238.880728 
L 69.222366 237.946154 
L 80.530822 236.9421 
L 90.373367 235.851055 
L 98.959417 234.681423 
L 106.498388 233.437948 
L 113.199695 232.116963 
L 119.272755 230.700835 
L 124.717567 229.213331 
L 129.743547 227.618013 
L 134.350696 225.930577 
L 138.748429 224.080863 
L 142.72733 222.170566 
L 146.496815 220.119077 
L 150.056885 217.93291 
L 153.407539 215.62418 
L 156.758192 213.04136 
L 159.89943 210.343921 
L 163.040668 207.355323 
L 166.181906 204.057172 
L 169.323143 200.44161 
L 172.673797 196.248052 
L 176.652698 190.891757 
L 185.65758 178.585991 
L 187.961154 175.893766 
L 189.845897 174.006386 
L 191.521224 172.63058 
L 192.987135 171.697968 
L 194.453046 171.045477 
L 195.709541 170.723527 
L 196.966036 170.628198 
L 198.222531 170.761577 
L 199.479026 171.120748 
L 200.735521 171.697968 
L 202.201432 172.63058 
L 203.667343 173.817749 
L 205.34267 175.446716 
L 207.436829 177.816668 
L 209.949819 181.015831 
L 213.92872 186.497782 
L 220.420612 195.426375 
L 223.980681 199.935846 
L 227.331335 203.82601 
L 230.472573 207.145235 
L 233.61381 210.15398 
L 236.755048 212.870134 
L 240.105702 215.471101 
L 243.456355 217.79607 
L 247.016425 219.997495 
L 250.78591 222.06309 
L 254.764811 223.986255 
L 258.953129 225.765106 
L 263.560277 227.474104 
L 268.586258 229.089114 
L 274.03107 230.594281 
L 279.894714 231.980922 
L 286.386605 233.284934 
L 293.71616 234.52203 
L 301.883378 235.667331 
L 311.097676 236.728994 
L 321.568469 237.707483 
L 333.714588 238.613581 
L 347.954866 239.445279 
L 353.81851 239.731785 
L 353.81851 239.731785 
" clip-path="url(#pef93c8c2fc)" style="fill: none; stroke: #00c853; stroke-width: 2; stroke-linecap: square"/>
   </g>
   <g id="line2d_34">
    <path d="M 39.904146 243.654221 
L 97.702922 243.531433 
L 112.780863 243.294604 
L 121.785745 242.946425 
L 128.06822 242.497306 
L 133.094201 241.919362 
L 137.073102 241.244418 
L 140.423756 240.45888 
L 143.355578 239.547674 
L 145.868568 238.547687 
L 148.172142 237.404491 
L 150.266301 236.131421 
L 152.360459 234.58516 
L 154.245202 232.911 
L 156.129945 230.915731 
L 157.805272 228.823594 
L 159.480598 226.380328 
L 161.155925 223.529659 
L 162.831252 220.208197 
L 164.506579 216.34545 
L 166.181906 211.864352 
L 167.857232 206.682505 
L 169.532559 200.71447 
L 171.207886 193.87544 
L 172.883213 186.086718 
L 174.55854 177.283389 
L 176.443282 166.117201 
L 178.328025 153.614731 
L 180.422184 138.262814 
L 183.14459 116.496802 
L 188.798818 70.562945 
L 190.474145 58.927341 
L 191.940056 50.327873 
L 192.987135 45.309723 
L 194.034214 41.364531 
L 194.871878 39.046678 
L 195.500125 37.822732 
L 196.128373 37.052605 
L 196.547204 36.795008 
L 196.966036 36.743436 
L 197.384868 36.8981 
L 197.803699 37.258362 
L 198.431947 38.180762 
L 199.060195 39.553679 
L 199.897858 42.06274 
L 200.735521 45.309723 
L 201.782601 50.327873 
L 203.039096 57.598132 
L 204.505007 67.503554 
L 206.389749 81.87446 
L 209.740403 109.543164 
L 213.091057 136.652032 
L 215.394631 153.614731 
L 217.48879 167.424492 
L 219.373532 178.440988 
L 221.258275 188.126804 
L 222.933602 195.671325 
L 224.608929 202.284877 
L 226.284255 208.048312 
L 227.959582 213.047029 
L 229.634909 217.365993 
L 231.310236 221.086436 
L 232.985563 224.283864 
L 234.66089 227.02702 
L 236.336216 229.377501 
L 238.220959 231.620058 
L 240.105702 233.501999 
L 241.990444 235.081045 
L 244.084603 236.539606 
L 246.388177 237.848539 
L 248.691752 238.906878 
L 251.414158 239.90122 
L 254.34598 240.730103 
L 257.696633 241.445556 
L 261.675535 242.061239 
L 266.492099 242.571704 
L 272.565159 242.979763 
L 280.732377 243.28902 
L 292.669081 243.49913 
L 313.820082 243.617889 
L 353.81851 243.654221 
L 353.81851 243.654221 
" clip-path="url(#pef93c8c2fc)" style="fill: none; stroke: #222222; stroke-width: 2; stroke-linecap: square"/>
   </g>
   <g id="patch_3">
    <path d="M 39.904146 253.99976 
L 39.904146 26.397896 
" style="fill: none; stroke: #000000; stroke-width: 0.8; stroke-linejoin: miter; stroke-linecap: square"/>
   </g>
   <g id="patch_4">
    <path d="M 39.904146 253.99976 
L 353.81851 253.99976 
" style="fill: none; stroke: #000000; stroke-width: 0.8; stroke-linejoin: miter; stroke-linecap: square"/>
   </g>
   <g id="text_18">
    <!-- Sinh-arcsinh (SHASH) distribution -->
    <g transform="translate(71.376953 14.397896) scale(0.15 -0.15)">
     <defs>
      <path id="DejaVuSans-36" d="M 3425 4513 
L 3425 3897 
Q 3066 4069 2747 4153 
Q 2428 4238 2131 4238 
Q 1616 4238 1336 4038 
Q 1056 3838 1056 3469 
Q 1056 3159 1242 3001 
Q 1428 2844 1947 2747 
L 2328 2669 
Q 3034 2534 3370 2195 
Q 3706 1856 3706 1288 
Q 3706 609 3251 259 
Q 2797 -91 1919 -91 
Q 1588 -91 1214 -16 
Q 841 59 441 206 
L 441 856 
Q 825 641 1194 531 
Q 1563 422 1919 422 
Q 2459 422 2753 634 
Q 3047 847 3047 1241 
Q 3047 1584 2836 1778 
Q 2625 1972 2144 2069 
L 1759 2144 
Q 1053 2284 737 2584 
Q 422 2884 422 3419 
Q 422 4038 858 4394 
Q 1294 4750 2059 4750 
Q 2388 4750 2728 4690 
Q 3069 4631 3425 4513 
z
" transform="scale(0.015625)"/>
      <path id="DejaVuSans-4b" d="M 3513 2113 
L 3513 0 
L 2938 0 
L 2938 2094 
Q 2938 2591 2744 2837 
Q 2550 3084 2163 3084 
Q 1697 3084 1428 2787 
Q 1159 2491 1159 1978 
L 1159 0 
L 581 0 
L 581 4863 
L 1159 4863 
L 1159 2956 
Q 1366 3272 1645 3428 
Q 1925 3584 2291 3584 
Q 2894 3584 3203 3211 
Q 3513 2838 3513 2113 
z
" transform="scale(0.015625)"/>
      <path id="DejaVuSans-10" d="M 313 2009 
L 1997 2009 
L 1997 1497 
L 313 1497 
L 313 2009 
z
" transform="scale(0.015625)"/>
      <path id="DejaVuSans-46" d="M 3122 3366 
L 3122 2828 
Q 2878 2963 2633 3030 
Q 2388 3097 2138 3097 
Q 1578 3097 1268 2742 
Q 959 2388 959 1747 
Q 959 1106 1268 751 
Q 1578 397 2138 397 
Q 2388 397 2633 464 
Q 2878 531 3122 666 
L 3122 134 
Q 2881 22 2623 -34 
Q 2366 -91 2075 -91 
Q 1284 -91 818 406 
Q 353 903 353 1747 
Q 353 2603 823 3093 
Q 1294 3584 2113 3584 
Q 2378 3584 2631 3529 
Q 2884 3475 3122 3366 
z
" transform="scale(0.015625)"/>
      <path id="DejaVuSans-b" d="M 1984 4856 
Q 1566 4138 1362 3434 
Q 1159 2731 1159 2009 
Q 1159 1288 1364 580 
Q 1569 -128 1984 -844 
L 1484 -844 
Q 1016 -109 783 600 
Q 550 1309 550 2009 
Q 550 2706 781 3412 
Q 1013 4119 1484 4856 
L 1984 4856 
z
" transform="scale(0.015625)"/>
      <path id="DejaVuSans-2b" d="M 628 4666 
L 1259 4666 
L 1259 2753 
L 3553 2753 
L 3553 4666 
L 4184 4666 
L 4184 0 
L 3553 0 
L 3553 2222 
L 1259 2222 
L 1259 0 
L 628 0 
L 628 4666 
z
" transform="scale(0.015625)"/>
      <path id="DejaVuSans-24" d="M 2188 4044 
L 1331 1722 
L 3047 1722 
L 2188 4044 
z
M 1831 4666 
L 2547 4666 
L 4325 0 
L 3669 0 
L 3244 1197 
L 1141 1197 
L 716 0 
L 50 0 
L 1831 4666 
z
" transform="scale(0.015625)"/>
      <path id="DejaVuSans-c" d="M 513 4856 
L 1013 4856 
Q 1481 4119 1714 3412 
Q 1947 2706 1947 2009 
Q 1947 1309 1714 600 
Q 1481 -109 1013 -844 
L 513 -844 
Q 928 -128 1133 580 
Q 1338 1288 1338 2009 
Q 1338 2731 1133 3434 
Q 928 4138 513 4856 
z
" transform="scale(0.015625)"/>
      <path id="DejaVuSans-58" d="M 544 1381 
L 544 3500 
L 1119 3500 
L 1119 1403 
Q 1119 906 1312 657 
Q 1506 409 1894 409 
Q 2359 409 2629 706 
Q 2900 1003 2900 1516 
L 2900 3500 
L 3475 3500 
L 3475 0 
L 2900 0 
L 2900 538 
Q 2691 219 2414 64 
Q 2138 -91 1772 -91 
Q 1169 -91 856 284 
Q 544 659 544 1381 
z
M 1991 3584 
L 1991 3584 
z
" transform="scale(0.015625)"/>
     </defs>
     <use xlink:href="#DejaVuSans-36"/>
     <use xlink:href="#DejaVuSans-4c" transform="translate(63.484375 0)"/>
     <use xlink:href="#DejaVuSans-51" transform="translate(91.265625 0)"/>
     <use xlink:href="#DejaVuSans-4b" transform="translate(154.640625 0)"/>
     <use xlink:href="#DejaVuSans-10" transform="translate(218.015625 0)"/>
     <use xlink:href="#DejaVuSans-44" transform="translate(254.09375 0)"/>
     <use xlink:href="#DejaVuSans-55" transform="translate(315.375 0)"/>
     <use xlink:href="#DejaVuSans-46" transform="translate(354.28125 0)"/>
     <use xlink:href="#DejaVuSans-56" transform="translate(409.265625 0)"/>
     <use xlink:href="#DejaVuSans-4c" transform="translate(461.359375 0)"/>
     <use xlink:href="#DejaVuSans-51" transform="translate(489.140625 0)"/>
     <use xlink:href="#DejaVuSans-4b" transform="translate(552.515625 0)"/>
     <use xlink:href="#DejaVuSans-3" transform="translate(615.890625 0)"/>
     <use xlink:href="#DejaVuSans-b" transform="translate(647.671875 0)"/>
     <use xlink:href="#DejaVuSans-36" transform="translate(686.6875 0)"/>
     <use xlink:href="#DejaVuSans-2b" transform="translate(750.171875 0)"/>
     <use xlink:href="#DejaVuSans-24" transform="translate(825.375 0)"/>
     <use xlink:href="#DejaVuSans-36" transform="translate(893.78125 0)"/>
     <use xlink:href="#DejaVuSans-2b" transform="translate(957.265625 0)"/>
     <use xlink:href="#DejaVuSans-c" transform="translate(1032.46875 0)"/>
     <use xlink:href="#DejaVuSans-3" transform="translate(1071.484375 0)"/>
     <use xlink:href="#DejaVuSans-47" transform="translate(1103.265625 0)"/>
     <use xlink:href="#DejaVuSans-4c" transform="translate(1166.75 0)"/>
     <use xlink:href="#DejaVuSans-56" transform="translate(1194.53125 0)"/>
     <use xlink:href="#DejaVuSans-57" transform="translate(1246.625 0)"/>
     <use xlink:href="#DejaVuSans-55" transform="translate(1285.828125 0)"/>
     <use xlink:href="#DejaVuSans-4c" transform="translate(1326.9375 0)"/>
     <use xlink:href="#DejaVuSans-45" transform="translate(1354.71875 0)"/>
     <use xlink:href="#DejaVuSans-58" transform="translate(1418.203125 0)"/>
     <use xlink:href="#DejaVuSans-57" transform="translate(1481.578125 0)"/>
     <use xlink:href="#DejaVuSans-4c" transform="translate(1520.78125 0)"/>
     <use xlink:href="#DejaVuSans-52" transform="translate(1548.5625 0)"/>
     <use xlink:href="#DejaVuSans-51" transform="translate(1609.75 0)"/>
    </g>
   </g>
   <g id="legend_1">
    <g id="patch_5">
     <path d="M 181.21851 94.401021 
L 346.81851 94.401021 
Q 348.81851 94.401021 348.81851 92.401021 
L 348.81851 33.397896 
Q 348.81851 31.397896 346.81851 31.397896 
L 181.21851 31.397896 
Q 179.21851 31.397896 179.21851 33.397896 
L 179.21851 92.401021 
Q 179.21851 94.401021 181.21851 94.401021 
z
" style="fill: #ffffff; opacity: 0.88; stroke: #bdbdbd; stroke-linejoin: miter"/>
    </g>
    <g id="line2d_35">
     <path d="M 183.21851 39.496334 
L 193.21851 39.496334 
L 203.21851 39.496334 
" style="fill: none; stroke: #e41a1c; stroke-width: 2; stroke-linecap: square"/>
    </g>
    <g id="text_19">
     <!-- $\mu=0,\ \sigma=1,\ \nu=1,\ \tau=1$ -->
     <g transform="translate(211.21851 42.996334) scale(0.1 -0.1)">
      <defs>
       <path id="DejaVuSans-Oblique-350" d="M -84 -1331 
L 856 3500 
L 1434 3500 
L 1009 1322 
Q 997 1256 987 1175 
Q 978 1094 978 1013 
Q 978 722 1161 565 
Q 1344 409 1684 409 
Q 2147 409 2431 671 
Q 2716 934 2816 1459 
L 3213 3500 
L 3788 3500 
L 3266 809 
Q 3253 750 3248 706 
Q 3244 663 3244 628 
Q 3244 531 3283 486 
Q 3322 441 3406 441 
Q 3438 441 3492 456 
Q 3547 472 3647 513 
L 3559 50 
Q 3422 -19 3297 -55 
Q 3172 -91 3053 -91 
Q 2847 -91 2730 40 
Q 2613 172 2613 403 
Q 2438 153 2195 31 
Q 1953 -91 1625 -91 
Q 1334 -91 1117 43 
Q 900 178 831 397 
L 494 -1331 
L -84 -1331 
z
" transform="scale(0.015625)"/>
       <path id="DejaVuSans-20" d="M 678 2906 
L 4684 2906 
L 4684 2381 
L 678 2381 
L 678 2906 
z
M 678 1631 
L 4684 1631 
L 4684 1100 
L 678 1100 
L 678 1631 
z
" transform="scale(0.015625)"/>
       <path id="DejaVuSans-f" d="M 750 794 
L 1409 794 
L 1409 256 
L 897 -744 
L 494 -744 
L 750 256 
L 750 794 
z
" transform="scale(0.015625)"/>
       <path id="DejaVuSans-Oblique-357" d="M 2219 3044 
Q 1744 3044 1422 2700 
Q 1081 2341 969 1747 
Q 844 1119 1044 756 
Q 1241 397 1706 397 
Q 2166 397 2503 759 
Q 2844 1122 2966 1747 
Q 3075 2319 2881 2700 
Q 2700 3044 2219 3044 
z
M 2309 3503 
L 4219 3500 
L 4106 2925 
L 3463 2925 
Q 3706 2438 3575 1747 
Q 3406 888 2884 400 
Q 2359 -91 1609 -91 
Q 856 -91 525 400 
Q 194 888 363 1747 
Q 528 2609 1050 3097 
Q 1484 3503 2309 3503 
z
" transform="scale(0.015625)"/>
       <path id="DejaVuSans-Oblique-351" d="M 959 0 
L 572 3500 
L 1191 3500 
L 1522 563 
Q 1972 950 2391 1488 
Q 2706 1891 2788 2241 
Q 2825 2406 2809 2719 
Q 2794 3091 2544 3500 
L 3125 3500 
L 3125 3500 
Q 3288 3222 3353 2834 
Q 3416 2478 3369 2234 
Q 3250 1622 2719 1075 
Q 2025 363 1572 0 
L 959 0 
z
" transform="scale(0.015625)"/>
       <path id="DejaVuSans-Oblique-358" d="M 2103 638 
Q 2188 488 2525 488 
L 2800 488 
L 2706 0 
L 2363 0 
Q 1800 0 1600 300 
Q 1403 606 1534 1269 
L 1856 2925 
L 541 2925 
L 653 3500 
L 3881 3500 
L 3769 2925 
L 2444 2925 
L 2113 1234 
Q 2025 781 2103 638 
z
" transform="scale(0.015625)"/>
      </defs>
      <use xlink:href="#DejaVuSans-Oblique-350" transform="translate(0 0.78125)"/>
      <use xlink:href="#DejaVuSans-20" transform="translate(83.105469 0.78125)"/>
      <use xlink:href="#DejaVuSans-13" transform="translate(186.376953 0.78125)"/>
      <use xlink:href="#DejaVuSans-f" transform="translate(250 0.78125)"/>
      <use xlink:href="#DejaVuSans-Oblique-357" transform="translate(333.73991 0.78125)"/>
      <use xlink:href="#DejaVuSans-20" transform="translate(416.601238 0.78125)"/>
      <use xlink:href="#DejaVuSans-14" transform="translate(519.872722 0.78125)"/>
      <use xlink:href="#DejaVuSans-f" transform="translate(583.495769 0.78125)"/>
      <use xlink:href="#DejaVuSans-Oblique-351" transform="translate(667.235679 0.78125)"/>
      <use xlink:href="#DejaVuSans-20" transform="translate(742.577476 0.78125)"/>
      <use xlink:href="#DejaVuSans-14" transform="translate(845.84896 0.78125)"/>
      <use xlink:href="#DejaVuSans-f" transform="translate(909.472007 0.78125)"/>
      <use xlink:href="#DejaVuSans-Oblique-358" transform="translate(993.211917 0.78125)"/>
      <use xlink:href="#DejaVuSans-20" transform="translate(1072.899417 0.78125)"/>
      <use xlink:href="#DejaVuSans-14" transform="translate(1176.170901 0.78125)"/>
     </g>
    </g>
    <g id="line2d_36">
     <path d="M 183.21851 54.497115 
L 193.21851 54.497115 
L 203.21851 54.497115 
" style="fill: none; stroke: #ff9800; stroke-width: 2; stroke-linecap: square"/>
    </g>
    <g id="text_20">
     <!-- $\mu=0,\ \sigma=1,\ \nu=0.5,\ \tau=1$ -->
     <g transform="translate(211.21851 57.997115) scale(0.1 -0.1)">
      <use xlink:href="#DejaVuSans-Oblique-350" transform="translate(0 0.78125)"/>
      <use xlink:href="#DejaVuSans-20" transform="translate(83.105469 0.78125)"/>
      <use xlink:href="#DejaVuSans-13" transform="translate(186.376953 0.78125)"/>
      <use xlink:href="#DejaVuSans-f" transform="translate(250 0.78125)"/>
      <use xlink:href="#DejaVuSans-Oblique-357" transform="translate(333.73991 0.78125)"/>
      <use xlink:href="#DejaVuSans-20" transform="translate(416.601238 0.78125)"/>
      <use xlink:href="#DejaVuSans-14" transform="translate(519.872722 0.78125)"/>
      <use xlink:href="#DejaVuSans-f" transform="translate(583.495769 0.78125)"/>
      <use xlink:href="#DejaVuSans-Oblique-351" transform="translate(667.235679 0.78125)"/>
      <use xlink:href="#DejaVuSans-20" transform="translate(742.577476 0.78125)"/>
      <use xlink:href="#DejaVuSans-13" transform="translate(845.84896 0.78125)"/>
      <use xlink:href="#DejaVuSans-11" transform="translate(909.472007 0.78125)"/>
      <use xlink:href="#DejaVuSans-18" transform="translate(941.259116 0.78125)"/>
      <use xlink:href="#DejaVuSans-f" transform="translate(1004.882163 0.78125)"/>
      <use xlink:href="#DejaVuSans-Oblique-358" transform="translate(1088.622073 0.78125)"/>
      <use xlink:href="#DejaVuSans-20" transform="translate(1168.309573 0.78125)"/>
      <use xlink:href="#DejaVuSans-14" transform="translate(1271.581057 0.78125)"/>
     </g>
    </g>
    <g id="line2d_37">
     <path d="M 183.21851 69.497896 
L 193.21851 69.497896 
L 203.21851 69.497896 
" style="fill: none; stroke: #00c853; stroke-width: 2; stroke-linecap: square"/>
    </g>
    <g id="text_21">
     <!-- $\mu=0,\ \sigma=1,\ \nu=1,\ \tau=0.6$ -->
     <g transform="translate(211.21851 72.997896) scale(0.1 -0.1)">
      <use xlink:href="#DejaVuSans-Oblique-350" transform="translate(0 0.78125)"/>
      <use xlink:href="#DejaVuSans-20" transform="translate(83.105469 0.78125)"/>
      <use xlink:href="#DejaVuSans-13" transform="translate(186.376953 0.78125)"/>
      <use xlink:href="#DejaVuSans-f" transform="translate(250 0.78125)"/>
      <use xlink:href="#DejaVuSans-Oblique-357" transform="translate(333.73991 0.78125)"/>
      <use xlink:href="#DejaVuSans-20" transform="translate(416.601238 0.78125)"/>
      <use xlink:href="#DejaVuSans-14" transform="translate(519.872722 0.78125)"/>
      <use xlink:href="#DejaVuSans-f" transform="translate(583.495769 0.78125)"/>
      <use xlink:href="#DejaVuSans-Oblique-351" transform="translate(667.235679 0.78125)"/>
      <use xlink:href="#DejaVuSans-20" transform="translate(742.577476 0.78125)"/>
      <use xlink:href="#DejaVuSans-14" transform="translate(845.84896 0.78125)"/>
      <use xlink:href="#DejaVuSans-f" transform="translate(909.472007 0.78125)"/>
      <use xlink:href="#DejaVuSans-Oblique-358" transform="translate(993.211917 0.78125)"/>
      <use xlink:href="#DejaVuSans-20" transform="translate(1072.899417 0.78125)"/>
      <use xlink:href="#DejaVuSans-13" transform="translate(1176.170901 0.78125)"/>
      <use xlink:href="#DejaVuSans-11" transform="translate(1239.793948 0.78125)"/>
      <use xlink:href="#DejaVuSans-19" transform="translate(1271.581057 0.78125)"/>
     </g>
    </g>
    <g id="line2d_38">
     <path d="M 183.21851 84.498677 
L 193.21851 84.498677 
L 203.21851 84.498677 
" style="fill: none; stroke: #222222; stroke-width: 2; stroke-linecap: square"/>
    </g>
    <g id="text_22">
     <!-- $\mu=0,\ \sigma=1,\ \nu=1,\ \tau=1.7$ -->
     <g transform="translate(211.21851 87.998677) scale(0.1 -0.1)">
      <use xlink:href="#DejaVuSans-Oblique-350" transform="translate(0 0.78125)"/>
      <use xlink:href="#DejaVuSans-20" transform="translate(83.105469 0.78125)"/>
      <use xlink:href="#DejaVuSans-13" transform="translate(186.376953 0.78125)"/>
      <use xlink:href="#DejaVuSans-f" transform="translate(250 0.78125)"/>
      <use xlink:href="#DejaVuSans-Oblique-357" transform="translate(333.73991 0.78125)"/>
      <use xlink:href="#DejaVuSans-20" transform="translate(416.601238 0.78125)"/>
      <use xlink:href="#DejaVuSans-14" transform="translate(519.872722 0.78125)"/>
      <use xlink:href="#DejaVuSans-f" transform="translate(583.495769 0.78125)"/>
      <use xlink:href="#DejaVuSans-Oblique-351" transform="translate(667.235679 0.78125)"/>
      <use xlink:href="#DejaVuSans-20" transform="translate(742.577476 0.78125)"/>
      <use xlink:href="#DejaVuSans-14" transform="translate(845.84896 0.78125)"/>
      <use xlink:href="#DejaVuSans-f" transform="translate(909.472007 0.78125)"/>
      <use xlink:href="#DejaVuSans-Oblique-358" transform="translate(993.211917 0.78125)"/>
      <use xlink:href="#DejaVuSans-20" transform="translate(1072.899417 0.78125)"/>
      <use xlink:href="#DejaVuSans-14" transform="translate(1176.170901 0.78125)"/>
      <use xlink:href="#DejaVuSans-11" transform="translate(1239.793948 0.78125)"/>
      <use xlink:href="#DejaVuSans-1a" transform="translate(1271.581057 0.78125)"/>
     </g>
    </g>
   </g>
  </g>
 </g>
 <defs>
  <clipPath id="pef93c8c2fc">
   <rect x="39.904146" y="26.397896" width="313.914364" height="227.601864"/>
  </clipPath>
 </defs>
</svg>
